<svg width="2942" height="502" viewBox="0 0 2942 502" fill="none" xmlns="http://www.w3.org/2000/svg">
<mask id="path-1-inside-1_16853_32968" fill="white">
<path d="M711.139 198.547C702.165 198.547 692.823 196.857 683.113 193.478C673.402 190.099 664.649 184.956 656.851 178.051L678.478 152.045C683.627 156.159 689.145 159.538 695.029 162.183C701.061 164.68 706.726 165.929 712.022 165.929C717.76 165.929 721.879 165.048 724.38 163.285C727.029 161.522 728.353 159.024 728.353 155.791C728.353 152.412 726.587 149.841 723.056 148.078C719.672 146.315 714.965 144.258 708.933 141.907L691.057 134.414C683.407 131.328 676.639 126.479 670.754 119.868C665.017 113.256 662.148 104.808 662.148 94.5229C662.148 86.295 664.428 78.8752 668.989 72.2635C673.55 65.5049 679.802 60.142 687.747 56.175C695.839 52.0611 705.107 50.0041 715.553 50.0041C723.792 50.0041 732.104 51.6203 740.49 54.8527C749.023 57.9381 756.6 62.7133 763.221 69.178L744.242 92.9802C739.387 89.6009 734.679 87.0297 730.118 85.2665C725.704 83.5034 720.849 82.6219 715.553 82.6219C710.992 82.6219 707.314 83.43 704.519 85.0461C701.871 86.6623 700.547 89.0866 700.547 92.319C700.547 95.6983 702.459 98.343 706.284 100.253C710.11 102.016 715.259 104.147 721.732 106.644L739.166 113.476C748.141 117.003 755.055 121.925 759.91 128.243C764.765 134.56 767.193 142.715 767.193 152.706C767.193 160.787 764.986 168.354 760.572 175.406C756.306 182.312 749.98 187.895 741.594 192.156C733.208 196.417 723.056 198.547 711.139 198.547Z"/>
<path d="M787.154 195.902V85.7073H825.112V195.902H787.154ZM806.133 72.0431C799.954 72.0431 794.952 70.3535 791.127 66.9741C787.302 63.4479 785.389 58.8197 785.389 53.0896C785.389 47.3594 787.302 42.8047 791.127 39.4254C794.952 35.8991 799.954 34.136 806.133 34.136C812.312 34.136 817.314 35.8991 821.14 39.4254C824.965 42.8047 826.877 47.3594 826.877 53.0896C826.877 58.8197 824.965 63.4479 821.14 66.9741C817.314 70.3535 812.312 72.0431 806.133 72.0431Z"/>
<path d="M850.73 195.902V85.7073H881.626L884.274 98.9307H885.157C889.57 94.6698 894.572 90.9967 900.163 87.9112C905.901 84.6788 912.521 83.0626 920.025 83.0626C932.236 83.0626 940.989 87.1766 946.286 95.4045C951.729 103.485 954.451 114.358 954.451 128.022V195.902H916.494V132.871C916.494 125.818 915.611 121.117 913.846 118.766C912.08 116.415 909.285 115.24 905.46 115.24C901.929 115.24 898.986 115.974 896.632 117.444C894.278 118.913 891.63 120.97 888.688 123.614V195.902H850.73Z"/>
<path d="M1019.34 241.303C1010.95 241.303 1003.23 240.348 996.167 238.438C989.105 236.675 983.441 233.81 979.175 229.843C975.055 225.876 972.995 220.586 972.995 213.974C972.995 205.306 978.145 198.253 988.443 192.817V191.935C985.648 189.878 983.22 187.381 981.161 184.442C979.248 181.357 978.292 177.537 978.292 172.982C978.292 169.162 979.395 165.415 981.602 161.742C983.956 158.069 986.972 154.91 990.65 152.265V151.384C986.678 148.739 983.147 144.992 980.057 140.144C977.115 135.148 975.644 129.492 975.644 123.174C975.644 114.064 977.85 106.571 982.264 100.694C986.825 94.6698 992.71 90.262 999.919 87.4704C1007.13 84.5319 1014.78 83.0626 1022.87 83.0626C1029.34 83.0626 1035.23 83.9442 1040.52 85.7073H1081.57V113.036H1065.68C1066.12 114.358 1066.49 116.048 1066.79 118.105C1067.23 120.162 1067.45 122.292 1067.45 124.496C1067.45 133.165 1065.46 140.217 1061.49 145.653C1057.52 150.943 1052.15 154.836 1045.38 157.334C1038.61 159.832 1031.11 161.081 1022.87 161.081C1019.19 161.081 1015.07 160.567 1010.51 159.538C1008.75 161.154 1007.86 163.285 1007.86 165.929C1007.86 168.28 1009.04 169.97 1011.39 170.998C1013.9 172.027 1017.87 172.541 1023.31 172.541H1039.86C1053.69 172.541 1064.36 174.818 1071.86 179.373C1079.51 183.781 1083.34 191.054 1083.34 201.192C1083.34 209.126 1080.69 216.105 1075.39 222.129C1070.24 228.153 1062.89 232.855 1053.32 236.234C1043.76 239.613 1032.43 241.303 1019.34 241.303ZM1022.87 138.601C1026.4 138.601 1029.27 137.352 1031.48 134.854C1033.68 132.357 1034.79 128.463 1034.79 123.174C1034.79 118.031 1033.68 114.285 1031.48 111.934C1029.27 109.436 1026.4 108.187 1022.87 108.187C1019.34 108.187 1016.47 109.436 1014.26 111.934C1012.06 114.285 1010.95 118.031 1010.95 123.174C1010.95 128.463 1012.06 132.357 1014.26 134.854C1016.47 137.352 1019.34 138.601 1022.87 138.601ZM1025.52 217.941C1031.7 217.941 1036.85 216.986 1040.97 215.076C1045.09 213.313 1047.15 210.889 1047.15 207.804C1047.15 204.865 1045.82 203.028 1043.17 202.294C1040.67 201.559 1037.07 201.192 1032.36 201.192H1023.75C1019.34 201.192 1015.96 201.045 1013.6 200.751C1011.39 200.604 1009.48 200.31 1007.86 199.869C1005.22 202.514 1003.89 205.159 1003.89 207.804C1003.89 211.33 1005.88 213.901 1009.85 215.517C1013.97 217.133 1019.19 217.941 1025.52 217.941Z"/>
<path d="M1124.02 198.547C1117.11 198.547 1111.15 197.004 1106.15 193.919C1101.29 190.687 1097.54 186.499 1094.89 181.357C1092.25 176.214 1090.92 170.631 1090.92 164.607C1090.92 153.147 1095.63 144.184 1105.05 137.719C1114.46 131.108 1129.76 126.7 1150.95 124.496C1150.06 116.856 1144.92 113.036 1135.5 113.036C1131.53 113.036 1127.33 113.844 1122.92 115.46C1118.51 116.929 1113.43 119.207 1107.69 122.292L1094.45 97.6084C1102.25 92.9067 1110.12 89.307 1118.07 86.8093C1126.16 84.3115 1134.47 83.0626 1143 83.0626C1157.42 83.0626 1168.68 87.1766 1176.77 95.4045C1184.86 103.485 1188.9 116.562 1188.9 134.634V195.902H1158.01L1155.36 185.324H1154.48C1150.06 189.291 1145.36 192.523 1140.35 195.021C1135.5 197.372 1130.06 198.547 1124.02 198.547ZM1137.26 169.456C1140.35 169.456 1142.93 168.794 1144.99 167.472C1147.05 166.003 1149.03 164.166 1150.95 161.962V146.976C1141.97 148.298 1135.72 150.282 1132.19 152.926C1128.81 155.571 1127.11 158.436 1127.11 161.522C1127.11 166.811 1130.5 169.456 1137.26 169.456Z"/>
<path d="M1213.65 234.691V85.7073H1244.55L1247.19 95.8453H1248.08C1252.2 92.0252 1256.83 88.9397 1261.98 86.5889C1267.28 84.238 1272.65 83.0626 1278.09 83.0626C1286.77 83.0626 1294.27 85.4135 1300.6 90.1151C1307.07 94.6698 1312.08 101.135 1315.61 109.509C1319.14 117.884 1320.9 127.728 1320.9 139.042C1320.9 151.677 1318.7 162.477 1314.28 171.439C1309.87 180.255 1304.13 187.013 1297.07 191.715C1290.15 196.27 1282.8 198.547 1275 198.547C1265.88 198.547 1257.64 194.874 1250.28 187.528L1251.61 204.277V234.691H1213.65ZM1265.73 167.692C1270.15 167.692 1273.97 165.636 1277.21 161.522C1280.44 157.408 1282.06 150.061 1282.06 139.483C1282.06 130.373 1280.74 123.835 1278.09 119.868C1275.59 115.901 1271.76 113.917 1266.61 113.917C1263.82 113.917 1261.24 114.505 1258.89 115.68C1256.54 116.856 1254.11 118.913 1251.61 121.851V162.403C1253.81 164.313 1256.1 165.709 1258.45 166.591C1260.95 167.325 1263.38 167.692 1265.73 167.692Z"/>
<path d="M1390.66 198.547C1381.24 198.547 1372.34 196.27 1363.95 191.715C1355.71 187.16 1348.95 180.622 1343.65 172.1C1338.5 163.432 1335.93 153 1335.93 140.805C1335.93 128.61 1338.5 118.252 1343.65 109.73C1348.95 101.061 1355.71 94.4495 1363.95 89.8947C1372.34 85.34 1381.24 83.0626 1390.66 83.0626C1400.07 83.0626 1408.9 85.34 1417.14 89.8947C1425.52 94.4495 1432.29 101.061 1437.44 109.73C1442.74 118.252 1445.39 128.61 1445.39 140.805C1445.39 153 1442.74 163.432 1437.44 172.1C1432.29 180.622 1425.52 187.16 1417.14 191.715C1408.9 196.27 1400.07 198.547 1390.66 198.547ZM1390.66 168.133C1396.39 168.133 1400.44 165.709 1402.79 160.86C1405.29 155.865 1406.54 149.18 1406.54 140.805C1406.54 132.43 1405.29 125.818 1402.79 120.97C1400.44 115.974 1396.39 113.476 1390.66 113.476C1384.92 113.476 1380.8 115.974 1378.3 120.97C1375.94 125.818 1374.77 132.43 1374.77 140.805C1374.77 149.18 1375.94 155.865 1378.3 160.86C1380.8 165.709 1384.92 168.133 1390.66 168.133Z"/>
<path d="M1465.15 195.902V85.7073H1496.05L1498.7 104.661H1499.58C1503.7 97.1676 1508.55 91.7313 1514.14 88.352C1519.88 84.8257 1525.47 83.0626 1530.92 83.0626C1534.3 83.0626 1537.02 83.283 1539.08 83.7238C1541.29 84.0177 1543.13 84.5319 1544.6 85.2665L1538.42 117.884C1536.51 117.444 1534.59 117.076 1532.68 116.782C1530.77 116.342 1528.56 116.121 1526.06 116.121C1522.09 116.121 1517.89 117.517 1513.48 120.309C1509.21 122.953 1505.76 127.728 1503.11 134.634V195.902H1465.15Z"/>
<path d="M1606.43 198.547C1595.69 198.547 1585.98 196.27 1577.3 191.715C1568.77 187.16 1562 180.622 1557 172.1C1552 163.432 1549.5 153 1549.5 140.805C1549.5 128.904 1552 118.692 1557 110.171C1562.15 101.502 1568.77 94.8168 1576.86 90.1151C1584.95 85.4135 1593.49 83.0626 1602.46 83.0626C1613.35 83.0626 1622.32 85.4869 1629.38 90.3355C1636.59 95.0372 1641.89 101.428 1645.27 109.509C1648.8 117.59 1650.57 126.553 1650.57 136.397C1650.57 139.629 1650.35 142.788 1649.91 145.874C1649.61 148.812 1649.32 150.943 1649.03 152.265H1586.13C1587.9 158.877 1591.06 163.505 1595.62 166.15C1600.18 168.648 1605.55 169.896 1611.73 169.896C1618.79 169.896 1626.3 167.692 1634.24 163.285L1646.6 185.764C1640.71 189.878 1634.09 193.037 1626.74 195.241C1619.38 197.445 1612.61 198.547 1606.43 198.547ZM1585.69 127.581H1618.35C1618.35 123.321 1617.25 119.647 1615.04 116.562C1612.98 113.33 1609.08 111.713 1603.34 111.713C1599.22 111.713 1595.55 112.962 1592.31 115.46C1589.07 117.958 1586.87 121.998 1585.69 127.581Z"/>
<path d="M1784.87 198.547C1771.48 198.547 1759.27 195.902 1748.24 190.613C1737.35 185.177 1728.67 177.022 1722.2 166.15C1715.72 155.277 1712.49 141.686 1712.49 125.378C1712.49 113.33 1714.4 102.677 1718.22 93.421C1722.05 84.0176 1727.27 76.0836 1733.89 69.6188C1740.51 63.154 1748.09 58.3055 1756.62 55.0731C1765.3 51.6937 1774.42 50.0041 1783.99 50.0041C1794.58 50.0041 1803.78 51.9141 1811.57 55.7342C1819.37 59.4074 1825.77 63.8152 1830.77 68.9576L1810.91 93.2006C1807.38 90.1151 1803.63 87.6174 1799.66 85.7073C1795.83 83.6503 1791.05 82.6219 1785.31 82.6219C1775.6 82.6219 1767.51 86.295 1761.04 93.6414C1754.56 100.841 1751.33 110.979 1751.33 124.055C1751.33 137.426 1754.34 147.784 1760.37 155.13C1766.55 162.33 1776.04 165.929 1788.84 165.929C1790.9 165.929 1792.89 165.709 1794.8 165.268C1796.86 164.827 1798.55 164.166 1799.88 163.285V143.45H1778.69V112.595H1833.42V180.916C1828.42 185.764 1821.58 189.952 1812.9 193.478C1804.36 196.857 1795.02 198.547 1784.87 198.547Z"/>
<path d="M1907.24 198.547C1897.82 198.547 1888.92 196.27 1880.53 191.715C1872.29 187.16 1865.53 180.622 1860.23 172.1C1855.08 163.432 1852.51 153 1852.51 140.805C1852.51 128.61 1855.08 118.252 1860.23 109.73C1865.53 101.061 1872.29 94.4495 1880.53 89.8947C1888.92 85.34 1897.82 83.0626 1907.24 83.0626C1916.65 83.0626 1925.48 85.34 1933.72 89.8947C1942.1 94.4495 1948.87 101.061 1954.02 109.73C1959.32 118.252 1961.96 128.61 1961.96 140.805C1961.96 153 1959.32 163.432 1954.02 172.1C1948.87 180.622 1942.1 187.16 1933.72 191.715C1925.48 196.27 1916.65 198.547 1907.24 198.547ZM1907.24 168.133C1912.97 168.133 1917.02 165.709 1919.37 160.86C1921.87 155.865 1923.12 149.18 1923.12 140.805C1923.12 132.43 1921.87 125.818 1919.37 120.97C1917.02 115.974 1912.97 113.476 1907.24 113.476C1901.5 113.476 1897.38 115.974 1894.88 120.97C1892.52 125.818 1891.35 132.43 1891.35 140.805C1891.35 149.18 1892.52 155.865 1894.88 160.86C1897.38 165.709 1901.5 168.133 1907.24 168.133Z"/>
<path d="M2005.62 195.902L1969.42 85.7073H2007.38L2019.3 133.752C2021.95 144.772 2024.6 156.232 2027.24 168.133H2028.13C2030.77 156.232 2033.42 144.772 2036.07 133.752L2047.99 85.7073H2084.18L2049.31 195.902H2005.62Z"/>
<path d="M2148.66 198.547C2137.92 198.547 2128.21 196.27 2119.53 191.715C2111 187.16 2104.23 180.622 2099.23 172.1C2094.22 163.432 2091.72 153 2091.72 140.805C2091.72 128.904 2094.22 118.692 2099.23 110.171C2104.38 101.502 2111 94.8168 2119.09 90.1151C2127.18 85.4135 2135.71 83.0626 2144.69 83.0626C2155.57 83.0626 2164.55 85.4869 2171.61 90.3355C2178.82 95.0372 2184.12 101.428 2187.5 109.509C2191.03 117.59 2192.8 126.553 2192.8 136.397C2192.8 139.629 2192.58 142.788 2192.13 145.874C2191.84 148.812 2191.55 150.943 2191.25 152.265H2128.36C2130.12 158.877 2133.29 163.505 2137.85 166.15C2142.41 168.648 2147.78 169.896 2153.96 169.896C2161.02 169.896 2168.52 167.692 2176.47 163.285L2188.82 185.764C2182.94 189.878 2176.32 193.037 2168.96 195.241C2161.61 197.445 2154.84 198.547 2148.66 198.547ZM2127.92 127.581H2160.58C2160.58 123.321 2159.47 119.647 2157.27 116.562C2155.21 113.33 2151.31 111.713 2145.57 111.713C2141.45 111.713 2137.77 112.962 2134.54 115.46C2131.3 117.958 2129.09 121.998 2127.92 127.581Z"/>
<path d="M2213.62 195.902V85.7073H2244.52L2247.17 104.661H2248.05C2252.17 97.1676 2257.02 91.7313 2262.61 88.352C2268.35 84.8257 2273.94 83.0626 2279.38 83.0626C2282.77 83.0626 2285.49 83.283 2287.55 83.7238C2289.76 84.0177 2291.6 84.5319 2293.07 85.2665L2286.89 117.884C2284.98 117.444 2283.06 117.076 2281.15 116.782C2279.24 116.342 2277.03 116.121 2274.53 116.121C2270.56 116.121 2266.36 117.517 2261.95 120.309C2257.68 122.953 2254.23 127.728 2251.58 134.634V195.902H2213.62Z"/>
<path d="M2305.86 195.902V85.7073H2336.76L2339.4 98.9307H2340.29C2344.7 94.6698 2349.7 90.9967 2355.29 87.9112C2361.03 84.6788 2367.65 83.0626 2375.15 83.0626C2387.37 83.0626 2396.12 87.1766 2401.42 95.4045C2406.86 103.485 2409.58 114.358 2409.58 128.022V195.902H2371.62V132.871C2371.62 125.818 2370.74 121.117 2368.98 118.766C2367.21 116.415 2364.41 115.24 2360.59 115.24C2357.06 115.24 2354.12 115.974 2351.76 117.444C2349.41 118.913 2346.76 120.97 2343.82 123.614V195.902H2305.86Z"/>
<path d="M2434.3 195.902V85.7073H2465.2L2467.85 99.1511H2468.73C2473.14 94.8902 2477.85 91.1436 2482.85 87.9112C2488 84.6788 2494.33 83.0626 2501.83 83.0626C2509.34 83.0626 2515.52 84.6054 2520.37 87.6908C2525.37 90.6294 2529.35 94.9637 2532.29 100.694C2536.85 95.9922 2541.78 91.8782 2547.07 88.352C2552.37 84.8257 2558.77 83.0626 2566.27 83.0626C2578.48 83.0626 2587.31 87.1766 2592.75 95.4045C2598.35 103.485 2601.14 114.358 2601.14 128.022V195.902H2563.18V132.871C2563.18 125.818 2562.3 121.117 2560.54 118.766C2558.77 116.415 2555.97 115.24 2552.15 115.24C2547.44 115.24 2542.29 118.031 2536.7 123.614V195.902H2498.74V132.871C2498.74 125.818 2497.86 121.117 2496.1 118.766C2494.33 116.415 2491.53 115.24 2487.71 115.24C2483 115.24 2477.85 118.031 2472.26 123.614V195.902H2434.3Z"/>
<path d="M2677.09 198.547C2666.35 198.547 2656.64 196.27 2647.96 191.715C2639.43 187.16 2632.66 180.622 2627.66 172.1C2622.66 163.432 2620.16 153 2620.16 140.805C2620.16 128.904 2622.66 118.692 2627.66 110.171C2632.81 101.502 2639.43 94.8168 2647.52 90.1151C2655.61 85.4135 2664.15 83.0626 2673.12 83.0626C2684.01 83.0626 2692.98 85.4869 2700.04 90.3355C2707.25 95.0372 2712.55 101.428 2715.93 109.509C2719.46 117.59 2721.23 126.553 2721.23 136.397C2721.23 139.629 2721.01 142.788 2720.57 145.874C2720.27 148.812 2719.98 150.943 2719.68 152.265H2656.79C2658.55 158.877 2661.72 163.505 2666.28 166.15C2670.84 168.648 2676.21 169.896 2682.39 169.896C2689.45 169.896 2696.95 167.692 2704.9 163.285L2717.26 185.764C2711.37 189.878 2704.75 193.037 2697.4 195.241C2690.04 197.445 2683.27 198.547 2677.09 198.547ZM2656.35 127.581H2689.01C2689.01 123.321 2687.91 119.647 2685.7 116.562C2683.64 113.33 2679.74 111.713 2674 111.713C2669.88 111.713 2666.2 112.962 2662.97 115.46C2659.73 117.958 2657.52 121.998 2656.35 127.581Z"/>
<path d="M2742.05 195.902V85.7073H2772.95L2775.6 98.9307H2776.48C2780.89 94.6698 2785.9 90.9967 2791.49 87.9112C2797.22 84.6788 2803.85 83.0626 2811.35 83.0626C2823.56 83.0626 2832.31 87.1766 2837.61 95.4045C2843.05 103.485 2845.78 114.358 2845.78 128.022V195.902H2807.82V132.871C2807.82 125.818 2806.93 121.117 2805.17 118.766C2803.4 116.415 2800.61 115.24 2796.78 115.24C2793.25 115.24 2790.31 115.974 2787.96 117.444C2785.6 118.913 2782.95 120.97 2780.01 123.614V195.902H2742.05Z"/>
<path d="M2915.96 198.547C2901.69 198.547 2891.32 194.433 2884.84 186.205C2878.52 177.83 2875.35 166.958 2875.35 153.588V115.24H2860.79V87.0297L2877.56 85.7073L2881.97 57.0566H2913.31V85.7073H2938.47V115.24H2913.31V152.926C2913.31 158.95 2914.64 163.138 2917.28 165.489C2919.93 167.839 2923.02 169.015 2926.55 169.015C2928.32 169.015 2930.01 168.868 2931.63 168.574C2933.39 168.133 2934.94 167.692 2936.26 167.252L2942 194.58C2939.2 195.462 2935.67 196.343 2931.41 197.225C2927.14 198.106 2921.99 198.547 2915.96 198.547Z"/>
<path d="M665.679 440.78V297.527H708.05C722.615 297.527 735.415 299.951 746.449 304.8C757.63 309.501 766.31 317.068 772.489 327.5C778.668 337.932 781.758 351.596 781.758 368.492C781.758 385.389 778.668 399.2 772.489 409.926C766.31 420.505 757.851 428.292 747.111 433.287C736.371 438.283 724.086 440.78 710.257 440.78H665.679ZM703.636 410.367H705.843C712.758 410.367 719.01 409.191 724.601 406.84C730.192 404.49 734.605 400.302 737.842 394.278C741.226 388.254 742.918 379.659 742.918 368.492C742.918 357.326 741.226 348.878 737.842 343.148C734.605 337.271 730.192 333.303 724.601 331.247C719.01 329.043 712.758 327.941 705.843 327.941H703.636V410.367Z"/>
<path d="M855.378 443.425C844.638 443.425 834.928 441.148 826.248 436.593C817.715 432.038 810.947 425.5 805.945 416.978C800.943 408.31 798.442 397.878 798.442 385.683C798.442 373.782 800.943 363.57 805.945 355.049C811.095 346.38 817.715 339.695 825.807 334.993C833.898 330.292 842.431 327.941 851.406 327.941C862.293 327.941 871.267 330.365 878.329 335.214C885.538 339.915 890.835 346.307 894.218 354.388C897.749 362.468 899.515 371.431 899.515 381.275C899.515 384.508 899.294 387.666 898.853 390.752C898.559 393.69 898.264 395.821 897.97 397.143H835.075C836.841 403.755 840.004 408.383 844.565 411.028C849.125 413.526 854.495 414.774 860.675 414.774C867.736 414.774 875.24 412.571 883.184 408.163L895.543 430.643C889.658 434.756 883.037 437.915 875.681 440.119C868.325 442.323 861.557 443.425 855.378 443.425ZM834.634 372.46H867.295C867.295 368.199 866.192 364.525 863.985 361.44C861.925 358.208 858.026 356.591 852.289 356.591C848.169 356.591 844.491 357.84 841.255 360.338C838.018 362.836 835.811 366.876 834.634 372.46Z"/>
<path d="M944.226 440.78L908.034 330.585H945.991L957.908 378.63C960.556 389.65 963.204 401.11 965.853 413.011H966.735C969.383 401.11 972.032 389.65 974.68 378.63L986.597 330.585H1022.79L987.921 440.78H944.226Z"/>
<path d="M1087.27 443.425C1076.53 443.425 1066.82 441.148 1058.14 436.593C1049.6 432.038 1042.84 425.5 1037.83 416.978C1032.83 408.31 1030.33 397.878 1030.33 385.683C1030.33 373.782 1032.83 363.57 1037.83 355.049C1042.98 346.38 1049.6 339.695 1057.7 334.993C1065.79 330.292 1074.32 327.941 1083.3 327.941C1094.18 327.941 1103.16 330.365 1110.22 335.214C1117.43 339.915 1122.72 346.307 1126.11 354.388C1129.64 362.468 1131.4 371.431 1131.4 381.275C1131.4 384.508 1131.18 387.666 1130.74 390.752C1130.45 393.69 1130.15 395.821 1129.86 397.143H1066.97C1068.73 403.755 1071.89 408.383 1076.45 411.028C1081.02 413.526 1086.39 414.774 1092.56 414.774C1099.63 414.774 1107.13 412.571 1115.07 408.163L1127.43 430.643C1121.55 434.756 1114.93 437.915 1107.57 440.119C1100.21 442.323 1093.45 443.425 1087.27 443.425ZM1066.52 372.46H1099.18C1099.18 368.199 1098.08 364.525 1095.87 361.44C1093.81 358.208 1089.92 356.591 1084.18 356.591C1080.06 356.591 1076.38 357.84 1073.14 360.338C1069.91 362.836 1067.7 366.876 1066.52 372.46Z"/>
<path d="M1186.22 443.425C1177.68 443.425 1170.91 441.735 1165.91 438.356C1161.06 434.83 1157.53 429.981 1155.32 423.81C1153.26 417.493 1152.23 410.22 1152.23 401.992V287.389H1190.19V403.314C1190.19 406.987 1190.85 409.559 1192.17 411.028C1193.64 412.35 1195.04 413.011 1196.37 413.011C1197.1 413.011 1197.69 413.011 1198.13 413.011C1198.72 412.864 1199.46 412.717 1200.34 412.571L1204.75 440.34C1202.84 441.221 1200.34 441.956 1197.25 442.544C1194.16 443.131 1190.48 443.425 1186.22 443.425Z"/>
<path d="M1266.95 443.425C1257.54 443.425 1248.64 441.148 1240.25 436.593C1232.01 432.038 1225.24 425.5 1219.95 416.978C1214.8 408.31 1212.22 397.878 1212.22 385.683C1212.22 373.488 1214.8 363.13 1219.95 354.608C1225.24 345.939 1232.01 339.328 1240.25 334.773C1248.64 330.218 1257.54 327.941 1266.95 327.941C1276.37 327.941 1285.2 330.218 1293.43 334.773C1301.82 339.328 1308.59 345.939 1313.74 354.608C1319.03 363.13 1321.68 373.488 1321.68 385.683C1321.68 397.878 1319.03 408.31 1313.74 416.978C1308.59 425.5 1301.82 432.038 1293.43 436.593C1285.2 441.148 1276.37 443.425 1266.95 443.425ZM1266.95 413.011C1272.69 413.011 1276.74 410.587 1279.09 405.738C1281.59 400.743 1282.84 394.058 1282.84 385.683C1282.84 377.308 1281.59 370.696 1279.09 365.848C1276.74 360.852 1272.69 358.355 1266.95 358.355C1261.21 358.355 1257.1 360.852 1254.59 365.848C1252.24 370.696 1251.06 377.308 1251.06 385.683C1251.06 394.058 1252.24 400.743 1254.59 405.738C1257.1 410.587 1261.21 413.011 1266.95 413.011Z"/>
<path d="M1341.45 479.569V330.585H1372.34L1374.99 340.723H1375.88C1379.99 336.903 1384.63 333.818 1389.78 331.467C1395.07 329.116 1400.44 327.941 1405.89 327.941C1414.57 327.941 1422.07 330.292 1428.4 334.993C1434.87 339.548 1439.87 346.013 1443.4 354.388C1446.94 362.762 1448.7 372.606 1448.7 383.92C1448.7 396.556 1446.49 407.355 1442.08 416.317C1437.67 425.133 1431.93 431.891 1424.87 436.593C1417.95 441.148 1410.6 443.425 1402.8 443.425C1393.68 443.425 1385.44 439.752 1378.08 432.406L1379.41 449.155V479.569H1341.45ZM1393.53 412.571C1397.94 412.571 1401.77 410.514 1405.01 406.4C1408.24 402.286 1409.86 394.939 1409.86 384.361C1409.86 375.251 1408.54 368.713 1405.89 364.746C1403.39 360.779 1399.56 358.795 1394.41 358.795C1391.62 358.795 1389.04 359.383 1386.69 360.558C1384.33 361.734 1381.91 363.791 1379.41 366.729V407.281C1381.61 409.191 1383.89 410.587 1386.25 411.469C1388.75 412.203 1391.18 412.571 1393.53 412.571Z"/>
<path d="M1520.66 443.425C1509.92 443.425 1500.21 441.148 1491.53 436.593C1483 432.038 1476.23 425.5 1471.23 416.978C1466.23 408.31 1463.72 397.878 1463.72 385.683C1463.72 373.782 1466.23 363.57 1471.23 355.049C1476.38 346.38 1483 339.695 1491.09 334.993C1499.18 330.292 1507.71 327.941 1516.69 327.941C1527.58 327.941 1536.55 330.365 1543.61 335.214C1550.82 339.915 1556.12 346.307 1559.5 354.388C1563.03 362.468 1564.8 371.431 1564.8 381.275C1564.8 384.508 1564.58 387.666 1564.14 390.752C1563.84 393.69 1563.55 395.821 1563.25 397.143H1500.36C1502.12 403.755 1505.29 408.383 1509.85 411.028C1514.41 413.526 1519.78 414.774 1525.96 414.774C1533.02 414.774 1540.52 412.571 1548.47 408.163L1560.82 430.643C1554.94 434.756 1548.32 437.915 1540.96 440.119C1533.61 442.323 1526.84 443.425 1520.66 443.425ZM1499.92 372.46H1532.58C1532.58 368.199 1531.47 364.525 1529.27 361.44C1527.21 358.208 1523.31 356.591 1517.57 356.591C1513.45 356.591 1509.77 357.84 1506.54 360.338C1503.3 362.836 1501.09 366.876 1499.92 372.46Z"/>
<path d="M1585.62 440.78V330.585H1616.52L1619.17 349.539H1620.05C1624.17 342.046 1629.02 336.609 1634.61 333.23C1640.35 329.704 1645.94 327.941 1651.39 327.941C1654.77 327.941 1657.49 328.161 1659.55 328.602C1661.76 328.896 1663.6 329.41 1665.07 330.145L1658.89 362.762C1656.98 362.322 1655.06 361.954 1653.15 361.66C1651.24 361.22 1649.03 360.999 1646.53 360.999C1642.56 360.999 1638.37 362.395 1633.95 365.187C1629.69 367.831 1626.23 372.606 1623.58 379.512V440.78H1585.62Z"/>
<path d="M1725.13 440.78V297.527H1777.65C1788.1 297.527 1797.74 298.996 1806.56 301.935C1815.39 304.873 1822.45 309.795 1827.75 316.701C1833.19 323.606 1835.91 333.083 1835.91 345.131C1835.91 356.738 1833.19 366.289 1827.75 373.782C1822.45 381.128 1815.39 386.564 1806.56 390.091C1797.88 393.617 1788.54 395.38 1778.54 395.38H1763.09V440.78H1725.13ZM1763.09 365.407H1776.77C1784.27 365.407 1789.79 363.644 1793.32 360.118C1797 356.444 1798.84 351.449 1798.84 345.131C1798.84 338.666 1796.85 334.112 1792.88 331.467C1788.91 328.822 1783.24 327.5 1775.89 327.5H1763.09V365.407Z"/>
<path d="M1900.99 443.425C1891.57 443.425 1882.67 441.148 1874.28 436.593C1866.04 432.038 1859.28 425.5 1853.98 416.978C1848.83 408.31 1846.26 397.878 1846.26 385.683C1846.26 373.488 1848.83 363.13 1853.98 354.608C1859.28 345.939 1866.04 339.328 1874.28 334.773C1882.67 330.218 1891.57 327.941 1900.99 327.941C1910.4 327.941 1919.23 330.218 1927.47 334.773C1935.85 339.328 1942.62 345.939 1947.77 354.608C1953.07 363.13 1955.71 373.488 1955.71 385.683C1955.71 397.878 1953.07 408.31 1947.77 416.978C1942.62 425.5 1935.85 432.038 1927.47 436.593C1919.23 441.148 1910.4 443.425 1900.99 443.425ZM1900.99 413.011C1906.72 413.011 1910.77 410.587 1913.12 405.738C1915.62 400.743 1916.87 394.058 1916.87 385.683C1916.87 377.308 1915.62 370.696 1913.12 365.848C1910.77 360.852 1906.72 358.355 1900.99 358.355C1895.25 358.355 1891.13 360.852 1888.63 365.848C1886.27 370.696 1885.1 377.308 1885.1 385.683C1885.1 394.058 1886.27 400.743 1888.63 405.738C1891.13 410.587 1895.25 413.011 1900.99 413.011Z"/>
<path d="M1975.48 440.78V330.585H2006.38L2009.03 349.539H2009.91C2014.03 342.046 2018.88 336.609 2024.47 333.23C2030.21 329.704 2035.8 327.941 2041.25 327.941C2044.63 327.941 2047.35 328.161 2049.41 328.602C2051.62 328.896 2053.46 329.41 2054.93 330.145L2048.75 362.762C2046.84 362.322 2044.92 361.954 2043.01 361.66C2041.1 361.22 2038.89 360.999 2036.39 360.999C2032.42 360.999 2028.23 362.395 2023.81 365.187C2019.54 367.831 2016.09 372.606 2013.44 379.512V440.78H1975.48Z"/>
<path d="M2113.18 443.425C2098.91 443.425 2088.54 439.311 2082.06 431.083C2075.74 422.708 2072.58 411.836 2072.58 398.466V360.118H2058.01V331.908L2074.78 330.585L2079.2 301.935H2110.53V330.585H2135.69V360.118H2110.53V397.804C2110.53 403.828 2111.86 408.016 2114.51 410.367C2117.15 412.717 2120.24 413.893 2123.77 413.893C2125.54 413.893 2127.23 413.746 2128.85 413.452C2130.62 413.011 2132.16 412.571 2133.48 412.13L2139.22 439.458C2136.43 440.34 2132.9 441.221 2128.63 442.103C2124.36 442.984 2119.21 443.425 2113.18 443.425Z"/>
<path d="M2180.46 443.425C2173.54 443.425 2167.59 441.882 2162.58 438.797C2157.73 435.565 2153.98 431.377 2151.33 426.235C2148.68 421.092 2147.36 415.509 2147.36 409.485C2147.36 398.025 2152.06 389.062 2161.48 382.597C2170.9 375.986 2186.2 371.578 2207.38 369.374C2206.5 361.734 2201.35 357.914 2191.93 357.914C2187.96 357.914 2183.77 358.722 2179.35 360.338C2174.94 361.807 2169.87 364.085 2164.13 367.17L2150.89 342.486C2158.68 337.785 2166.56 334.185 2174.5 331.687C2182.59 329.19 2190.9 327.941 2199.44 327.941C2213.86 327.941 2225.11 332.055 2233.2 340.283C2241.29 348.364 2245.34 361.44 2245.34 379.512V440.78H2214.44L2211.8 430.202H2210.91C2206.5 434.169 2201.79 437.401 2196.79 439.899C2191.93 442.25 2186.49 443.425 2180.46 443.425ZM2193.7 414.334C2196.79 414.334 2199.36 413.673 2201.42 412.35C2203.48 410.881 2205.47 409.044 2207.38 406.84V391.854C2198.41 393.176 2192.15 395.16 2188.62 397.804C2185.24 400.449 2183.55 403.314 2183.55 406.4C2183.55 411.689 2186.93 414.334 2193.7 414.334Z"/>
<path d="M2304.07 443.425C2295.54 443.425 2288.77 441.735 2283.77 438.356C2278.91 434.83 2275.38 429.981 2273.17 423.81C2271.12 417.493 2270.09 410.22 2270.09 401.992V287.389H2308.04V403.314C2308.04 406.987 2308.7 409.559 2310.03 411.028C2311.5 412.35 2312.9 413.011 2314.22 413.011C2314.96 413.011 2315.55 413.011 2315.99 413.011C2316.58 412.864 2317.31 412.717 2318.19 412.571L2322.61 440.34C2320.7 441.221 2318.19 441.956 2315.1 442.544C2312.01 443.131 2308.34 443.425 2304.07 443.425Z"/>
<path fill-rule="evenodd" clip-rule="evenodd" d="M142.605 502H110.834C68.8521 502 47.8641 473.058 47.8641 415.176V319.584C47.8641 290.926 37.5019 274.912 16.7775 268.312C7.51216 268.312 0 260.563 0 251.001C0 241.443 7.50935 233.691 16.7747 233.691C37.5019 227.278 47.8641 210.605 47.8641 181.568V86.2607C47.8641 28.7526 68.8521 0 110.834 0H142.605C151.87 0 159.382 7.74893 159.382 17.3101C159.382 26.8714 151.87 34.6203 142.605 34.6203H134.217C100.662 34.6203 83.8848 34.6203 83.8848 77.8971L85.0602 183.55C85.0602 216.921 73.7246 239.263 51.0507 250.576C73.7246 262.079 85.0602 284.516 85.0602 317.887L83.8848 424.103C83.8848 469.203 98.9989 468.609 122.815 467.673H122.831C123.816 467.632 142.605 467.38 142.605 467.38C151.87 467.38 159.382 475.129 159.382 484.69C159.382 494.251 151.87 502 142.605 502Z"/>
<path fill-rule="evenodd" clip-rule="evenodd" d="M409.103 502H440.874C482.856 502 503.847 473.058 503.847 415.176V319.584C503.847 290.926 514.206 274.912 534.93 268.312C544.196 268.312 551.708 260.563 551.708 251.001C551.708 241.443 544.196 233.691 534.933 233.691C514.206 227.278 503.847 210.605 503.847 181.568V86.2607C503.847 28.7526 482.856 0 440.874 0H409.103C399.838 0 392.326 7.74893 392.326 17.3101C392.326 26.8714 399.838 34.6203 409.103 34.6203H417.493C451.046 34.6203 467.823 34.6203 467.823 77.8971L466.648 183.55C466.648 216.921 477.983 239.263 500.657 250.576C477.983 262.079 466.648 284.516 466.648 317.887L467.823 424.103C467.823 469.203 452.709 468.609 428.893 467.673H428.877C427.892 467.632 409.103 467.38 409.103 467.38C399.838 467.38 392.326 475.129 392.326 484.69C392.326 494.251 399.838 502 409.103 502Z"/>
<path fill-rule="evenodd" clip-rule="evenodd" d="M294.244 121.886C294.244 108.678 284.222 97.9512 271.874 97.9512H144.969C132.625 97.9512 122.602 108.678 122.602 121.886V122.992C122.602 136.203 132.625 146.927 144.969 146.927H271.874C284.222 146.927 294.244 136.203 294.244 122.992V121.886Z"/>
<path fill-rule="evenodd" clip-rule="evenodd" d="M429.106 121.886C429.106 108.678 419.344 97.9512 407.32 97.9512H328.291C316.267 97.9512 306.504 108.678 306.504 121.886V122.992C306.504 136.203 316.267 146.927 328.291 146.927H407.32C419.344 146.927 429.106 136.203 429.106 122.992V121.886Z"/>
<path fill-rule="evenodd" clip-rule="evenodd" d="M232.943 207.592C232.943 194.383 223.278 183.659 211.375 183.659H144.171C132.267 183.659 122.602 194.383 122.602 207.592V208.701C122.602 221.91 132.267 232.634 144.171 232.634H211.375C223.278 232.634 232.943 221.91 232.943 208.701V207.592Z"/>
<path fill-rule="evenodd" clip-rule="evenodd" d="M232.943 379.007C232.943 365.798 223.278 355.073 211.375 355.073H144.171C132.267 355.073 122.602 365.798 122.602 379.007V380.115C122.602 393.324 132.267 404.049 144.171 404.049H211.375C223.278 404.049 232.943 393.324 232.943 380.115V379.007Z"/>
<path fill-rule="evenodd" clip-rule="evenodd" d="M429.106 379.561C429.106 366.046 418.806 355.073 406.117 355.073H268.19C255.504 355.073 245.204 366.046 245.204 379.561C245.204 393.076 255.504 404.049 268.19 404.049H406.117C418.806 404.049 429.106 393.076 429.106 379.561Z"/>
<path fill-rule="evenodd" clip-rule="evenodd" d="M429.106 207.592C429.106 194.383 419.039 183.659 406.639 183.659H267.671C255.271 183.659 245.204 194.383 245.204 207.592V208.701C245.204 221.91 255.271 232.634 267.671 232.634H406.639C419.039 232.634 429.106 221.91 429.106 208.701V207.592Z"/>
<path fill-rule="evenodd" clip-rule="evenodd" d="M429.106 293.301C429.106 280.09 419.163 269.366 406.916 269.366H144.792C132.545 269.366 122.602 280.09 122.602 293.301V294.406C122.602 307.618 132.545 318.341 144.792 318.341H406.916C419.163 318.341 429.106 307.618 429.106 294.406V293.301Z"/>
</mask>
<path d="M711.139 198.547C702.165 198.547 692.823 196.857 683.113 193.478C673.402 190.099 664.649 184.956 656.851 178.051L678.478 152.045C683.627 156.159 689.145 159.538 695.029 162.183C701.061 164.68 706.726 165.929 712.022 165.929C717.76 165.929 721.879 165.048 724.38 163.285C727.029 161.522 728.353 159.024 728.353 155.791C728.353 152.412 726.587 149.841 723.056 148.078C719.672 146.315 714.965 144.258 708.933 141.907L691.057 134.414C683.407 131.328 676.639 126.479 670.754 119.868C665.017 113.256 662.148 104.808 662.148 94.5229C662.148 86.295 664.428 78.8752 668.989 72.2635C673.55 65.5049 679.802 60.142 687.747 56.175C695.839 52.0611 705.107 50.0041 715.553 50.0041C723.792 50.0041 732.104 51.6203 740.49 54.8527C749.023 57.9381 756.6 62.7133 763.221 69.178L744.242 92.9802C739.387 89.6009 734.679 87.0297 730.118 85.2665C725.704 83.5034 720.849 82.6219 715.553 82.6219C710.992 82.6219 707.314 83.43 704.519 85.0461C701.871 86.6623 700.547 89.0866 700.547 92.319C700.547 95.6983 702.459 98.343 706.284 100.253C710.11 102.016 715.259 104.147 721.732 106.644L739.166 113.476C748.141 117.003 755.055 121.925 759.91 128.243C764.765 134.56 767.193 142.715 767.193 152.706C767.193 160.787 764.986 168.354 760.572 175.406C756.306 182.312 749.98 187.895 741.594 192.156C733.208 196.417 723.056 198.547 711.139 198.547Z" fill="white"/>
<path d="M787.154 195.902V85.7073H825.112V195.902H787.154ZM806.133 72.0431C799.954 72.0431 794.952 70.3535 791.127 66.9741C787.302 63.4479 785.389 58.8197 785.389 53.0896C785.389 47.3594 787.302 42.8047 791.127 39.4254C794.952 35.8991 799.954 34.136 806.133 34.136C812.312 34.136 817.314 35.8991 821.14 39.4254C824.965 42.8047 826.877 47.3594 826.877 53.0896C826.877 58.8197 824.965 63.4479 821.14 66.9741C817.314 70.3535 812.312 72.0431 806.133 72.0431Z" fill="white"/>
<path d="M850.73 195.902V85.7073H881.626L884.274 98.9307H885.157C889.57 94.6698 894.572 90.9967 900.163 87.9112C905.901 84.6788 912.521 83.0626 920.025 83.0626C932.236 83.0626 940.989 87.1766 946.286 95.4045C951.729 103.485 954.451 114.358 954.451 128.022V195.902H916.494V132.871C916.494 125.818 915.611 121.117 913.846 118.766C912.08 116.415 909.285 115.24 905.46 115.24C901.929 115.24 898.986 115.974 896.632 117.444C894.278 118.913 891.63 120.97 888.688 123.614V195.902H850.73Z" fill="white"/>
<path d="M1019.34 241.303C1010.95 241.303 1003.23 240.348 996.167 238.438C989.105 236.675 983.441 233.81 979.175 229.843C975.055 225.876 972.995 220.586 972.995 213.974C972.995 205.306 978.145 198.253 988.443 192.817V191.935C985.648 189.878 983.22 187.381 981.161 184.442C979.248 181.357 978.292 177.537 978.292 172.982C978.292 169.162 979.395 165.415 981.602 161.742C983.956 158.069 986.972 154.91 990.65 152.265V151.384C986.678 148.739 983.147 144.992 980.057 140.144C977.115 135.148 975.644 129.492 975.644 123.174C975.644 114.064 977.85 106.571 982.264 100.694C986.825 94.6698 992.71 90.262 999.919 87.4704C1007.13 84.5319 1014.78 83.0626 1022.87 83.0626C1029.34 83.0626 1035.23 83.9442 1040.52 85.7073H1081.57V113.036H1065.68C1066.12 114.358 1066.49 116.048 1066.79 118.105C1067.23 120.162 1067.45 122.292 1067.45 124.496C1067.45 133.165 1065.46 140.217 1061.49 145.653C1057.52 150.943 1052.15 154.836 1045.38 157.334C1038.61 159.832 1031.11 161.081 1022.87 161.081C1019.19 161.081 1015.07 160.567 1010.51 159.538C1008.75 161.154 1007.86 163.285 1007.86 165.929C1007.86 168.28 1009.04 169.97 1011.39 170.998C1013.9 172.027 1017.87 172.541 1023.31 172.541H1039.86C1053.69 172.541 1064.36 174.818 1071.86 179.373C1079.51 183.781 1083.34 191.054 1083.34 201.192C1083.34 209.126 1080.69 216.105 1075.39 222.129C1070.24 228.153 1062.89 232.855 1053.32 236.234C1043.76 239.613 1032.43 241.303 1019.34 241.303ZM1022.87 138.601C1026.4 138.601 1029.27 137.352 1031.48 134.854C1033.68 132.357 1034.79 128.463 1034.79 123.174C1034.79 118.031 1033.68 114.285 1031.48 111.934C1029.27 109.436 1026.4 108.187 1022.87 108.187C1019.34 108.187 1016.47 109.436 1014.26 111.934C1012.06 114.285 1010.95 118.031 1010.95 123.174C1010.95 128.463 1012.06 132.357 1014.26 134.854C1016.47 137.352 1019.34 138.601 1022.87 138.601ZM1025.52 217.941C1031.7 217.941 1036.85 216.986 1040.97 215.076C1045.09 213.313 1047.15 210.889 1047.15 207.804C1047.15 204.865 1045.82 203.028 1043.17 202.294C1040.67 201.559 1037.07 201.192 1032.36 201.192H1023.75C1019.34 201.192 1015.96 201.045 1013.6 200.751C1011.39 200.604 1009.48 200.31 1007.86 199.869C1005.22 202.514 1003.89 205.159 1003.89 207.804C1003.89 211.33 1005.88 213.901 1009.85 215.517C1013.97 217.133 1019.19 217.941 1025.52 217.941Z" fill="white"/>
<path d="M1124.02 198.547C1117.11 198.547 1111.15 197.004 1106.15 193.919C1101.29 190.687 1097.54 186.499 1094.89 181.357C1092.25 176.214 1090.92 170.631 1090.92 164.607C1090.92 153.147 1095.63 144.184 1105.05 137.719C1114.46 131.108 1129.76 126.7 1150.95 124.496C1150.06 116.856 1144.92 113.036 1135.5 113.036C1131.53 113.036 1127.33 113.844 1122.92 115.46C1118.51 116.929 1113.43 119.207 1107.69 122.292L1094.45 97.6084C1102.25 92.9067 1110.12 89.307 1118.07 86.8093C1126.16 84.3115 1134.47 83.0626 1143 83.0626C1157.42 83.0626 1168.68 87.1766 1176.77 95.4045C1184.86 103.485 1188.9 116.562 1188.9 134.634V195.902H1158.01L1155.36 185.324H1154.48C1150.06 189.291 1145.36 192.523 1140.35 195.021C1135.5 197.372 1130.06 198.547 1124.02 198.547ZM1137.26 169.456C1140.35 169.456 1142.93 168.794 1144.99 167.472C1147.05 166.003 1149.03 164.166 1150.95 161.962V146.976C1141.97 148.298 1135.72 150.282 1132.19 152.926C1128.81 155.571 1127.11 158.436 1127.11 161.522C1127.11 166.811 1130.5 169.456 1137.26 169.456Z" fill="white"/>
<path d="M1213.65 234.691V85.7073H1244.55L1247.19 95.8453H1248.08C1252.2 92.0252 1256.83 88.9397 1261.98 86.5889C1267.28 84.238 1272.65 83.0626 1278.09 83.0626C1286.77 83.0626 1294.27 85.4135 1300.6 90.1151C1307.07 94.6698 1312.08 101.135 1315.61 109.509C1319.14 117.884 1320.9 127.728 1320.9 139.042C1320.9 151.677 1318.7 162.477 1314.28 171.439C1309.87 180.255 1304.13 187.013 1297.07 191.715C1290.15 196.27 1282.8 198.547 1275 198.547C1265.88 198.547 1257.64 194.874 1250.28 187.528L1251.61 204.277V234.691H1213.65ZM1265.73 167.692C1270.15 167.692 1273.97 165.636 1277.21 161.522C1280.44 157.408 1282.06 150.061 1282.06 139.483C1282.06 130.373 1280.74 123.835 1278.09 119.868C1275.59 115.901 1271.76 113.917 1266.61 113.917C1263.82 113.917 1261.24 114.505 1258.89 115.68C1256.54 116.856 1254.11 118.913 1251.61 121.851V162.403C1253.81 164.313 1256.1 165.709 1258.45 166.591C1260.95 167.325 1263.38 167.692 1265.73 167.692Z" fill="white"/>
<path d="M1390.66 198.547C1381.24 198.547 1372.34 196.27 1363.95 191.715C1355.71 187.16 1348.95 180.622 1343.65 172.1C1338.5 163.432 1335.93 153 1335.93 140.805C1335.93 128.61 1338.5 118.252 1343.65 109.73C1348.95 101.061 1355.71 94.4495 1363.95 89.8947C1372.34 85.34 1381.24 83.0626 1390.66 83.0626C1400.07 83.0626 1408.9 85.34 1417.14 89.8947C1425.52 94.4495 1432.29 101.061 1437.44 109.73C1442.74 118.252 1445.39 128.61 1445.39 140.805C1445.39 153 1442.74 163.432 1437.44 172.1C1432.29 180.622 1425.52 187.16 1417.14 191.715C1408.9 196.27 1400.07 198.547 1390.66 198.547ZM1390.66 168.133C1396.39 168.133 1400.44 165.709 1402.79 160.86C1405.29 155.865 1406.54 149.18 1406.54 140.805C1406.54 132.43 1405.29 125.818 1402.79 120.97C1400.44 115.974 1396.39 113.476 1390.66 113.476C1384.92 113.476 1380.8 115.974 1378.3 120.97C1375.94 125.818 1374.77 132.43 1374.77 140.805C1374.77 149.18 1375.94 155.865 1378.3 160.86C1380.8 165.709 1384.92 168.133 1390.66 168.133Z" fill="white"/>
<path d="M1465.15 195.902V85.7073H1496.05L1498.7 104.661H1499.58C1503.7 97.1676 1508.55 91.7313 1514.14 88.352C1519.88 84.8257 1525.47 83.0626 1530.92 83.0626C1534.3 83.0626 1537.02 83.283 1539.08 83.7238C1541.29 84.0177 1543.13 84.5319 1544.6 85.2665L1538.42 117.884C1536.51 117.444 1534.59 117.076 1532.68 116.782C1530.77 116.342 1528.56 116.121 1526.06 116.121C1522.09 116.121 1517.89 117.517 1513.48 120.309C1509.21 122.953 1505.76 127.728 1503.11 134.634V195.902H1465.15Z" fill="white"/>
<path d="M1606.43 198.547C1595.69 198.547 1585.98 196.27 1577.3 191.715C1568.77 187.16 1562 180.622 1557 172.1C1552 163.432 1549.5 153 1549.5 140.805C1549.5 128.904 1552 118.692 1557 110.171C1562.15 101.502 1568.77 94.8168 1576.86 90.1151C1584.95 85.4135 1593.49 83.0626 1602.46 83.0626C1613.35 83.0626 1622.32 85.4869 1629.38 90.3355C1636.59 95.0372 1641.89 101.428 1645.27 109.509C1648.8 117.59 1650.57 126.553 1650.57 136.397C1650.57 139.629 1650.35 142.788 1649.91 145.874C1649.61 148.812 1649.32 150.943 1649.03 152.265H1586.13C1587.9 158.877 1591.06 163.505 1595.62 166.15C1600.18 168.648 1605.55 169.896 1611.73 169.896C1618.79 169.896 1626.3 167.692 1634.24 163.285L1646.6 185.764C1640.71 189.878 1634.09 193.037 1626.74 195.241C1619.38 197.445 1612.61 198.547 1606.43 198.547ZM1585.69 127.581H1618.35C1618.35 123.321 1617.25 119.647 1615.04 116.562C1612.98 113.33 1609.08 111.713 1603.34 111.713C1599.22 111.713 1595.55 112.962 1592.31 115.46C1589.07 117.958 1586.87 121.998 1585.69 127.581Z" fill="white"/>
<path d="M1784.87 198.547C1771.48 198.547 1759.27 195.902 1748.24 190.613C1737.35 185.177 1728.67 177.022 1722.2 166.15C1715.72 155.277 1712.49 141.686 1712.49 125.378C1712.49 113.33 1714.4 102.677 1718.22 93.421C1722.05 84.0176 1727.27 76.0836 1733.89 69.6188C1740.51 63.154 1748.09 58.3055 1756.62 55.0731C1765.3 51.6937 1774.42 50.0041 1783.99 50.0041C1794.58 50.0041 1803.78 51.9141 1811.57 55.7342C1819.37 59.4074 1825.77 63.8152 1830.77 68.9576L1810.91 93.2006C1807.38 90.1151 1803.63 87.6174 1799.66 85.7073C1795.83 83.6503 1791.05 82.6219 1785.31 82.6219C1775.6 82.6219 1767.51 86.295 1761.04 93.6414C1754.56 100.841 1751.33 110.979 1751.33 124.055C1751.33 137.426 1754.34 147.784 1760.37 155.13C1766.55 162.33 1776.04 165.929 1788.84 165.929C1790.9 165.929 1792.89 165.709 1794.8 165.268C1796.86 164.827 1798.55 164.166 1799.88 163.285V143.45H1778.69V112.595H1833.42V180.916C1828.42 185.764 1821.58 189.952 1812.9 193.478C1804.36 196.857 1795.02 198.547 1784.87 198.547Z" fill="white"/>
<path d="M1907.24 198.547C1897.82 198.547 1888.92 196.27 1880.53 191.715C1872.29 187.16 1865.53 180.622 1860.23 172.1C1855.08 163.432 1852.51 153 1852.51 140.805C1852.51 128.61 1855.08 118.252 1860.23 109.73C1865.53 101.061 1872.29 94.4495 1880.53 89.8947C1888.92 85.34 1897.82 83.0626 1907.24 83.0626C1916.65 83.0626 1925.48 85.34 1933.72 89.8947C1942.1 94.4495 1948.87 101.061 1954.02 109.73C1959.32 118.252 1961.96 128.61 1961.96 140.805C1961.96 153 1959.32 163.432 1954.02 172.1C1948.87 180.622 1942.1 187.16 1933.72 191.715C1925.48 196.27 1916.65 198.547 1907.24 198.547ZM1907.24 168.133C1912.97 168.133 1917.02 165.709 1919.37 160.86C1921.87 155.865 1923.12 149.18 1923.12 140.805C1923.12 132.43 1921.87 125.818 1919.37 120.97C1917.02 115.974 1912.97 113.476 1907.24 113.476C1901.5 113.476 1897.38 115.974 1894.88 120.97C1892.52 125.818 1891.35 132.43 1891.35 140.805C1891.35 149.18 1892.52 155.865 1894.88 160.86C1897.38 165.709 1901.5 168.133 1907.24 168.133Z" fill="white"/>
<path d="M2005.62 195.902L1969.42 85.7073H2007.38L2019.3 133.752C2021.95 144.772 2024.6 156.232 2027.24 168.133H2028.13C2030.77 156.232 2033.42 144.772 2036.07 133.752L2047.99 85.7073H2084.18L2049.31 195.902H2005.62Z" fill="white"/>
<path d="M2148.66 198.547C2137.92 198.547 2128.21 196.27 2119.53 191.715C2111 187.16 2104.23 180.622 2099.23 172.1C2094.22 163.432 2091.72 153 2091.72 140.805C2091.72 128.904 2094.22 118.692 2099.23 110.171C2104.38 101.502 2111 94.8168 2119.09 90.1151C2127.18 85.4135 2135.71 83.0626 2144.69 83.0626C2155.57 83.0626 2164.55 85.4869 2171.61 90.3355C2178.82 95.0372 2184.12 101.428 2187.5 109.509C2191.03 117.59 2192.8 126.553 2192.8 136.397C2192.8 139.629 2192.58 142.788 2192.13 145.874C2191.84 148.812 2191.55 150.943 2191.25 152.265H2128.36C2130.12 158.877 2133.29 163.505 2137.85 166.15C2142.41 168.648 2147.78 169.896 2153.96 169.896C2161.02 169.896 2168.52 167.692 2176.47 163.285L2188.82 185.764C2182.94 189.878 2176.32 193.037 2168.96 195.241C2161.61 197.445 2154.84 198.547 2148.66 198.547ZM2127.92 127.581H2160.58C2160.58 123.321 2159.47 119.647 2157.27 116.562C2155.21 113.33 2151.31 111.713 2145.57 111.713C2141.45 111.713 2137.77 112.962 2134.54 115.46C2131.3 117.958 2129.09 121.998 2127.92 127.581Z" fill="white"/>
<path d="M2213.62 195.902V85.7073H2244.52L2247.17 104.661H2248.05C2252.17 97.1676 2257.02 91.7313 2262.61 88.352C2268.35 84.8257 2273.94 83.0626 2279.38 83.0626C2282.77 83.0626 2285.49 83.283 2287.55 83.7238C2289.76 84.0177 2291.6 84.5319 2293.07 85.2665L2286.89 117.884C2284.98 117.444 2283.06 117.076 2281.15 116.782C2279.24 116.342 2277.03 116.121 2274.53 116.121C2270.56 116.121 2266.36 117.517 2261.95 120.309C2257.68 122.953 2254.23 127.728 2251.58 134.634V195.902H2213.62Z" fill="white"/>
<path d="M2305.86 195.902V85.7073H2336.76L2339.4 98.9307H2340.29C2344.7 94.6698 2349.7 90.9967 2355.29 87.9112C2361.03 84.6788 2367.65 83.0626 2375.15 83.0626C2387.37 83.0626 2396.12 87.1766 2401.42 95.4045C2406.86 103.485 2409.58 114.358 2409.58 128.022V195.902H2371.62V132.871C2371.62 125.818 2370.74 121.117 2368.98 118.766C2367.21 116.415 2364.41 115.24 2360.59 115.24C2357.06 115.24 2354.12 115.974 2351.76 117.444C2349.41 118.913 2346.76 120.97 2343.82 123.614V195.902H2305.86Z" fill="white"/>
<path d="M2434.3 195.902V85.7073H2465.2L2467.85 99.1511H2468.73C2473.14 94.8902 2477.85 91.1436 2482.85 87.9112C2488 84.6788 2494.33 83.0626 2501.83 83.0626C2509.34 83.0626 2515.52 84.6054 2520.37 87.6908C2525.37 90.6294 2529.35 94.9637 2532.29 100.694C2536.85 95.9922 2541.78 91.8782 2547.07 88.352C2552.37 84.8257 2558.77 83.0626 2566.27 83.0626C2578.48 83.0626 2587.31 87.1766 2592.75 95.4045C2598.35 103.485 2601.14 114.358 2601.14 128.022V195.902H2563.18V132.871C2563.18 125.818 2562.3 121.117 2560.54 118.766C2558.77 116.415 2555.97 115.24 2552.15 115.24C2547.44 115.24 2542.29 118.031 2536.7 123.614V195.902H2498.74V132.871C2498.74 125.818 2497.86 121.117 2496.1 118.766C2494.33 116.415 2491.53 115.24 2487.71 115.24C2483 115.24 2477.85 118.031 2472.26 123.614V195.902H2434.3Z" fill="white"/>
<path d="M2677.09 198.547C2666.35 198.547 2656.64 196.27 2647.96 191.715C2639.43 187.16 2632.66 180.622 2627.66 172.1C2622.66 163.432 2620.16 153 2620.16 140.805C2620.16 128.904 2622.66 118.692 2627.66 110.171C2632.81 101.502 2639.43 94.8168 2647.52 90.1151C2655.61 85.4135 2664.15 83.0626 2673.12 83.0626C2684.01 83.0626 2692.98 85.4869 2700.04 90.3355C2707.25 95.0372 2712.55 101.428 2715.93 109.509C2719.46 117.59 2721.23 126.553 2721.23 136.397C2721.23 139.629 2721.01 142.788 2720.57 145.874C2720.27 148.812 2719.98 150.943 2719.68 152.265H2656.79C2658.55 158.877 2661.72 163.505 2666.28 166.15C2670.84 168.648 2676.21 169.896 2682.39 169.896C2689.45 169.896 2696.95 167.692 2704.9 163.285L2717.26 185.764C2711.37 189.878 2704.75 193.037 2697.4 195.241C2690.04 197.445 2683.27 198.547 2677.09 198.547ZM2656.35 127.581H2689.01C2689.01 123.321 2687.91 119.647 2685.7 116.562C2683.64 113.33 2679.74 111.713 2674 111.713C2669.88 111.713 2666.2 112.962 2662.97 115.46C2659.73 117.958 2657.52 121.998 2656.35 127.581Z" fill="white"/>
<path d="M2742.05 195.902V85.7073H2772.95L2775.6 98.9307H2776.48C2780.89 94.6698 2785.9 90.9967 2791.49 87.9112C2797.22 84.6788 2803.85 83.0626 2811.35 83.0626C2823.56 83.0626 2832.31 87.1766 2837.61 95.4045C2843.05 103.485 2845.78 114.358 2845.78 128.022V195.902H2807.82V132.871C2807.82 125.818 2806.93 121.117 2805.17 118.766C2803.4 116.415 2800.61 115.24 2796.78 115.24C2793.25 115.24 2790.31 115.974 2787.96 117.444C2785.6 118.913 2782.95 120.97 2780.01 123.614V195.902H2742.05Z" fill="white"/>
<path d="M2915.96 198.547C2901.69 198.547 2891.32 194.433 2884.84 186.205C2878.52 177.83 2875.35 166.958 2875.35 153.588V115.24H2860.79V87.0297L2877.56 85.7073L2881.97 57.0566H2913.31V85.7073H2938.47V115.24H2913.31V152.926C2913.31 158.95 2914.64 163.138 2917.28 165.489C2919.93 167.839 2923.02 169.015 2926.55 169.015C2928.32 169.015 2930.01 168.868 2931.63 168.574C2933.39 168.133 2934.94 167.692 2936.26 167.252L2942 194.58C2939.2 195.462 2935.67 196.343 2931.41 197.225C2927.14 198.106 2921.99 198.547 2915.96 198.547Z" fill="white"/>
<path d="M665.679 440.78V297.527H708.05C722.615 297.527 735.415 299.951 746.449 304.8C757.63 309.501 766.31 317.068 772.489 327.5C778.668 337.932 781.758 351.596 781.758 368.492C781.758 385.389 778.668 399.2 772.489 409.926C766.31 420.505 757.851 428.292 747.111 433.287C736.371 438.283 724.086 440.78 710.257 440.78H665.679ZM703.636 410.367H705.843C712.758 410.367 719.01 409.191 724.601 406.84C730.192 404.49 734.605 400.302 737.842 394.278C741.226 388.254 742.918 379.659 742.918 368.492C742.918 357.326 741.226 348.878 737.842 343.148C734.605 337.271 730.192 333.303 724.601 331.247C719.01 329.043 712.758 327.941 705.843 327.941H703.636V410.367Z" fill="white"/>
<path d="M855.378 443.425C844.638 443.425 834.928 441.148 826.248 436.593C817.715 432.038 810.947 425.5 805.945 416.978C800.943 408.31 798.442 397.878 798.442 385.683C798.442 373.782 800.943 363.57 805.945 355.049C811.095 346.38 817.715 339.695 825.807 334.993C833.898 330.292 842.431 327.941 851.406 327.941C862.293 327.941 871.267 330.365 878.329 335.214C885.538 339.915 890.835 346.307 894.218 354.388C897.749 362.468 899.515 371.431 899.515 381.275C899.515 384.508 899.294 387.666 898.853 390.752C898.559 393.69 898.264 395.821 897.97 397.143H835.075C836.841 403.755 840.004 408.383 844.565 411.028C849.125 413.526 854.495 414.774 860.675 414.774C867.736 414.774 875.24 412.571 883.184 408.163L895.543 430.643C889.658 434.756 883.037 437.915 875.681 440.119C868.325 442.323 861.557 443.425 855.378 443.425ZM834.634 372.46H867.295C867.295 368.199 866.192 364.525 863.985 361.44C861.925 358.208 858.026 356.591 852.289 356.591C848.169 356.591 844.491 357.84 841.255 360.338C838.018 362.836 835.811 366.876 834.634 372.46Z" fill="white"/>
<path d="M944.226 440.78L908.034 330.585H945.991L957.908 378.63C960.556 389.65 963.204 401.11 965.853 413.011H966.735C969.383 401.11 972.032 389.65 974.68 378.63L986.597 330.585H1022.79L987.921 440.78H944.226Z" fill="white"/>
<path d="M1087.27 443.425C1076.53 443.425 1066.82 441.148 1058.14 436.593C1049.6 432.038 1042.84 425.5 1037.83 416.978C1032.83 408.31 1030.33 397.878 1030.33 385.683C1030.33 373.782 1032.83 363.57 1037.83 355.049C1042.98 346.38 1049.6 339.695 1057.7 334.993C1065.79 330.292 1074.32 327.941 1083.3 327.941C1094.18 327.941 1103.16 330.365 1110.22 335.214C1117.43 339.915 1122.72 346.307 1126.11 354.388C1129.64 362.468 1131.4 371.431 1131.4 381.275C1131.4 384.508 1131.18 387.666 1130.74 390.752C1130.45 393.69 1130.15 395.821 1129.86 397.143H1066.97C1068.73 403.755 1071.89 408.383 1076.45 411.028C1081.02 413.526 1086.39 414.774 1092.56 414.774C1099.63 414.774 1107.13 412.571 1115.07 408.163L1127.43 430.643C1121.55 434.756 1114.93 437.915 1107.57 440.119C1100.21 442.323 1093.45 443.425 1087.27 443.425ZM1066.52 372.46H1099.18C1099.18 368.199 1098.08 364.525 1095.87 361.44C1093.81 358.208 1089.92 356.591 1084.18 356.591C1080.06 356.591 1076.38 357.84 1073.14 360.338C1069.91 362.836 1067.7 366.876 1066.52 372.46Z" fill="white"/>
<path d="M1186.22 443.425C1177.68 443.425 1170.91 441.735 1165.91 438.356C1161.06 434.83 1157.53 429.981 1155.32 423.81C1153.26 417.493 1152.23 410.22 1152.23 401.992V287.389H1190.19V403.314C1190.19 406.987 1190.85 409.559 1192.17 411.028C1193.64 412.35 1195.04 413.011 1196.37 413.011C1197.1 413.011 1197.69 413.011 1198.13 413.011C1198.72 412.864 1199.46 412.717 1200.34 412.571L1204.75 440.34C1202.84 441.221 1200.34 441.956 1197.25 442.544C1194.16 443.131 1190.48 443.425 1186.22 443.425Z" fill="white"/>
<path d="M1266.95 443.425C1257.54 443.425 1248.64 441.148 1240.25 436.593C1232.01 432.038 1225.24 425.5 1219.95 416.978C1214.8 408.31 1212.22 397.878 1212.22 385.683C1212.22 373.488 1214.8 363.13 1219.95 354.608C1225.24 345.939 1232.01 339.328 1240.25 334.773C1248.64 330.218 1257.54 327.941 1266.95 327.941C1276.37 327.941 1285.2 330.218 1293.43 334.773C1301.82 339.328 1308.59 345.939 1313.74 354.608C1319.03 363.13 1321.68 373.488 1321.68 385.683C1321.68 397.878 1319.03 408.31 1313.74 416.978C1308.59 425.5 1301.82 432.038 1293.43 436.593C1285.2 441.148 1276.37 443.425 1266.95 443.425ZM1266.95 413.011C1272.69 413.011 1276.74 410.587 1279.09 405.738C1281.59 400.743 1282.84 394.058 1282.84 385.683C1282.84 377.308 1281.59 370.696 1279.09 365.848C1276.74 360.852 1272.69 358.355 1266.95 358.355C1261.21 358.355 1257.1 360.852 1254.59 365.848C1252.24 370.696 1251.06 377.308 1251.06 385.683C1251.06 394.058 1252.24 400.743 1254.59 405.738C1257.1 410.587 1261.21 413.011 1266.95 413.011Z" fill="white"/>
<path d="M1341.45 479.569V330.585H1372.34L1374.99 340.723H1375.88C1379.99 336.903 1384.63 333.818 1389.78 331.467C1395.07 329.116 1400.44 327.941 1405.89 327.941C1414.57 327.941 1422.07 330.292 1428.4 334.993C1434.87 339.548 1439.87 346.013 1443.4 354.388C1446.94 362.762 1448.7 372.606 1448.7 383.92C1448.7 396.556 1446.49 407.355 1442.08 416.317C1437.67 425.133 1431.93 431.891 1424.87 436.593C1417.95 441.148 1410.6 443.425 1402.8 443.425C1393.68 443.425 1385.44 439.752 1378.08 432.406L1379.41 449.155V479.569H1341.45ZM1393.53 412.571C1397.94 412.571 1401.77 410.514 1405.01 406.4C1408.24 402.286 1409.86 394.939 1409.86 384.361C1409.86 375.251 1408.54 368.713 1405.89 364.746C1403.39 360.779 1399.56 358.795 1394.41 358.795C1391.62 358.795 1389.04 359.383 1386.69 360.558C1384.33 361.734 1381.91 363.791 1379.41 366.729V407.281C1381.61 409.191 1383.89 410.587 1386.25 411.469C1388.75 412.203 1391.18 412.571 1393.53 412.571Z" fill="white"/>
<path d="M1520.66 443.425C1509.92 443.425 1500.21 441.148 1491.53 436.593C1483 432.038 1476.23 425.5 1471.23 416.978C1466.23 408.31 1463.72 397.878 1463.72 385.683C1463.72 373.782 1466.23 363.57 1471.23 355.049C1476.38 346.38 1483 339.695 1491.09 334.993C1499.18 330.292 1507.71 327.941 1516.69 327.941C1527.58 327.941 1536.55 330.365 1543.61 335.214C1550.82 339.915 1556.12 346.307 1559.5 354.388C1563.03 362.468 1564.8 371.431 1564.8 381.275C1564.8 384.508 1564.58 387.666 1564.14 390.752C1563.84 393.69 1563.55 395.821 1563.25 397.143H1500.36C1502.12 403.755 1505.29 408.383 1509.85 411.028C1514.41 413.526 1519.78 414.774 1525.96 414.774C1533.02 414.774 1540.52 412.571 1548.47 408.163L1560.82 430.643C1554.94 434.756 1548.32 437.915 1540.96 440.119C1533.61 442.323 1526.84 443.425 1520.66 443.425ZM1499.92 372.46H1532.58C1532.58 368.199 1531.47 364.525 1529.27 361.44C1527.21 358.208 1523.31 356.591 1517.57 356.591C1513.45 356.591 1509.77 357.84 1506.54 360.338C1503.3 362.836 1501.09 366.876 1499.92 372.46Z" fill="white"/>
<path d="M1585.62 440.78V330.585H1616.52L1619.17 349.539H1620.05C1624.17 342.046 1629.02 336.609 1634.61 333.23C1640.35 329.704 1645.94 327.941 1651.39 327.941C1654.77 327.941 1657.49 328.161 1659.55 328.602C1661.76 328.896 1663.6 329.41 1665.07 330.145L1658.89 362.762C1656.98 362.322 1655.06 361.954 1653.15 361.66C1651.24 361.22 1649.03 360.999 1646.53 360.999C1642.56 360.999 1638.37 362.395 1633.95 365.187C1629.69 367.831 1626.23 372.606 1623.58 379.512V440.78H1585.62Z" fill="white"/>
<path d="M1725.13 440.78V297.527H1777.65C1788.1 297.527 1797.74 298.996 1806.56 301.935C1815.39 304.873 1822.45 309.795 1827.75 316.701C1833.19 323.606 1835.91 333.083 1835.91 345.131C1835.91 356.738 1833.19 366.289 1827.75 373.782C1822.45 381.128 1815.39 386.564 1806.56 390.091C1797.88 393.617 1788.54 395.38 1778.54 395.38H1763.09V440.78H1725.13ZM1763.09 365.407H1776.77C1784.27 365.407 1789.79 363.644 1793.32 360.118C1797 356.444 1798.84 351.449 1798.84 345.131C1798.84 338.666 1796.85 334.112 1792.88 331.467C1788.91 328.822 1783.24 327.5 1775.89 327.5H1763.09V365.407Z" fill="white"/>
<path d="M1900.99 443.425C1891.57 443.425 1882.67 441.148 1874.28 436.593C1866.04 432.038 1859.28 425.5 1853.98 416.978C1848.83 408.31 1846.26 397.878 1846.26 385.683C1846.26 373.488 1848.83 363.13 1853.98 354.608C1859.28 345.939 1866.04 339.328 1874.28 334.773C1882.67 330.218 1891.57 327.941 1900.99 327.941C1910.4 327.941 1919.23 330.218 1927.47 334.773C1935.85 339.328 1942.62 345.939 1947.77 354.608C1953.07 363.13 1955.71 373.488 1955.71 385.683C1955.71 397.878 1953.07 408.31 1947.77 416.978C1942.62 425.5 1935.85 432.038 1927.47 436.593C1919.23 441.148 1910.4 443.425 1900.99 443.425ZM1900.99 413.011C1906.72 413.011 1910.77 410.587 1913.12 405.738C1915.62 400.743 1916.87 394.058 1916.87 385.683C1916.87 377.308 1915.62 370.696 1913.12 365.848C1910.77 360.852 1906.72 358.355 1900.99 358.355C1895.25 358.355 1891.13 360.852 1888.63 365.848C1886.27 370.696 1885.1 377.308 1885.1 385.683C1885.1 394.058 1886.27 400.743 1888.63 405.738C1891.13 410.587 1895.25 413.011 1900.99 413.011Z" fill="white"/>
<path d="M1975.48 440.78V330.585H2006.38L2009.03 349.539H2009.91C2014.03 342.046 2018.88 336.609 2024.47 333.23C2030.21 329.704 2035.8 327.941 2041.25 327.941C2044.63 327.941 2047.35 328.161 2049.41 328.602C2051.62 328.896 2053.46 329.41 2054.93 330.145L2048.75 362.762C2046.84 362.322 2044.92 361.954 2043.01 361.66C2041.1 361.22 2038.89 360.999 2036.39 360.999C2032.42 360.999 2028.23 362.395 2023.81 365.187C2019.54 367.831 2016.09 372.606 2013.44 379.512V440.78H1975.48Z" fill="white"/>
<path d="M2113.18 443.425C2098.91 443.425 2088.54 439.311 2082.06 431.083C2075.74 422.708 2072.58 411.836 2072.58 398.466V360.118H2058.01V331.908L2074.78 330.585L2079.2 301.935H2110.53V330.585H2135.69V360.118H2110.53V397.804C2110.53 403.828 2111.86 408.016 2114.51 410.367C2117.15 412.717 2120.24 413.893 2123.77 413.893C2125.54 413.893 2127.23 413.746 2128.85 413.452C2130.62 413.011 2132.16 412.571 2133.48 412.13L2139.22 439.458C2136.43 440.34 2132.9 441.221 2128.63 442.103C2124.36 442.984 2119.21 443.425 2113.18 443.425Z" fill="white"/>
<path d="M2180.46 443.425C2173.54 443.425 2167.59 441.882 2162.58 438.797C2157.73 435.565 2153.98 431.377 2151.33 426.235C2148.68 421.092 2147.36 415.509 2147.36 409.485C2147.36 398.025 2152.06 389.062 2161.48 382.597C2170.9 375.986 2186.2 371.578 2207.38 369.374C2206.5 361.734 2201.35 357.914 2191.93 357.914C2187.96 357.914 2183.77 358.722 2179.35 360.338C2174.94 361.807 2169.87 364.085 2164.13 367.17L2150.89 342.486C2158.68 337.785 2166.56 334.185 2174.5 331.687C2182.59 329.19 2190.9 327.941 2199.44 327.941C2213.86 327.941 2225.11 332.055 2233.2 340.283C2241.29 348.364 2245.34 361.44 2245.34 379.512V440.78H2214.44L2211.8 430.202H2210.91C2206.5 434.169 2201.79 437.401 2196.79 439.899C2191.93 442.25 2186.49 443.425 2180.46 443.425ZM2193.7 414.334C2196.79 414.334 2199.36 413.673 2201.42 412.35C2203.48 410.881 2205.47 409.044 2207.38 406.84V391.854C2198.41 393.176 2192.15 395.16 2188.62 397.804C2185.24 400.449 2183.55 403.314 2183.55 406.4C2183.55 411.689 2186.93 414.334 2193.7 414.334Z" fill="white"/>
<path d="M2304.07 443.425C2295.54 443.425 2288.77 441.735 2283.77 438.356C2278.91 434.83 2275.38 429.981 2273.17 423.81C2271.12 417.493 2270.09 410.22 2270.09 401.992V287.389H2308.04V403.314C2308.04 406.987 2308.7 409.559 2310.03 411.028C2311.5 412.35 2312.9 413.011 2314.22 413.011C2314.96 413.011 2315.55 413.011 2315.99 413.011C2316.58 412.864 2317.31 412.717 2318.19 412.571L2322.61 440.34C2320.7 441.221 2318.19 441.956 2315.1 442.544C2312.01 443.131 2308.34 443.425 2304.07 443.425Z" fill="white"/>
<path fill-rule="evenodd" clip-rule="evenodd" d="M142.605 502H110.834C68.8521 502 47.8641 473.058 47.8641 415.176V319.584C47.8641 290.926 37.5019 274.912 16.7775 268.312C7.51216 268.312 0 260.563 0 251.001C0 241.443 7.50935 233.691 16.7747 233.691C37.5019 227.278 47.8641 210.605 47.8641 181.568V86.2607C47.8641 28.7526 68.8521 0 110.834 0H142.605C151.87 0 159.382 7.74893 159.382 17.3101C159.382 26.8714 151.87 34.6203 142.605 34.6203H134.217C100.662 34.6203 83.8848 34.6203 83.8848 77.8971L85.0602 183.55C85.0602 216.921 73.7246 239.263 51.0507 250.576C73.7246 262.079 85.0602 284.516 85.0602 317.887L83.8848 424.103C83.8848 469.203 98.9989 468.609 122.815 467.673H122.831C123.816 467.632 142.605 467.38 142.605 467.38C151.87 467.38 159.382 475.129 159.382 484.69C159.382 494.251 151.87 502 142.605 502Z" fill="white"/>
<path fill-rule="evenodd" clip-rule="evenodd" d="M409.103 502H440.874C482.856 502 503.847 473.058 503.847 415.176V319.584C503.847 290.926 514.206 274.912 534.93 268.312C544.196 268.312 551.708 260.563 551.708 251.001C551.708 241.443 544.196 233.691 534.933 233.691C514.206 227.278 503.847 210.605 503.847 181.568V86.2607C503.847 28.7526 482.856 0 440.874 0H409.103C399.838 0 392.326 7.74893 392.326 17.3101C392.326 26.8714 399.838 34.6203 409.103 34.6203H417.493C451.046 34.6203 467.823 34.6203 467.823 77.8971L466.648 183.55C466.648 216.921 477.983 239.263 500.657 250.576C477.983 262.079 466.648 284.516 466.648 317.887L467.823 424.103C467.823 469.203 452.709 468.609 428.893 467.673H428.877C427.892 467.632 409.103 467.38 409.103 467.38C399.838 467.38 392.326 475.129 392.326 484.69C392.326 494.251 399.838 502 409.103 502Z" fill="white"/>
<path fill-rule="evenodd" clip-rule="evenodd" d="M294.244 121.886C294.244 108.678 284.222 97.9512 271.874 97.9512H144.969C132.625 97.9512 122.602 108.678 122.602 121.886V122.992C122.602 136.203 132.625 146.927 144.969 146.927H271.874C284.222 146.927 294.244 136.203 294.244 122.992V121.886Z" fill="#61B6FA"/>
<path fill-rule="evenodd" clip-rule="evenodd" d="M429.106 121.886C429.106 108.678 419.344 97.9512 407.32 97.9512H328.291C316.267 97.9512 306.504 108.678 306.504 121.886V122.992C306.504 136.203 316.267 146.927 328.291 146.927H407.32C419.344 146.927 429.106 136.203 429.106 122.992V121.886Z" fill="#53BFC0"/>
<path fill-rule="evenodd" clip-rule="evenodd" d="M232.943 207.592C232.943 194.383 223.278 183.659 211.375 183.659H144.171C132.267 183.659 122.602 194.383 122.602 207.592V208.701C122.602 221.91 132.267 232.634 144.171 232.634H211.375C223.278 232.634 232.943 221.91 232.943 208.701V207.592Z" fill="#6EC3EC"/>
<path fill-rule="evenodd" clip-rule="evenodd" d="M232.943 379.007C232.943 365.798 223.278 355.073 211.375 355.073H144.171C132.267 355.073 122.602 365.798 122.602 379.007V380.115C122.602 393.324 132.267 404.049 144.171 404.049H211.375C223.278 404.049 232.943 393.324 232.943 380.115V379.007Z" fill="#E25352"/>
<path fill-rule="evenodd" clip-rule="evenodd" d="M429.106 379.561C429.106 366.046 418.806 355.073 406.117 355.073H268.19C255.504 355.073 245.204 366.046 245.204 379.561C245.204 393.076 255.504 404.049 268.19 404.049H406.117C418.806 404.049 429.106 393.076 429.106 379.561Z" fill="#39A4FA"/>
<path fill-rule="evenodd" clip-rule="evenodd" d="M429.106 207.592C429.106 194.383 419.039 183.659 406.639 183.659H267.671C255.271 183.659 245.204 194.383 245.204 207.592V208.701C245.204 221.91 255.271 232.634 267.671 232.634H406.639C419.039 232.634 429.106 221.91 429.106 208.701V207.592Z" fill="#D883DA"/>
<path fill-rule="evenodd" clip-rule="evenodd" d="M429.106 293.301C429.106 280.09 419.163 269.366 406.916 269.366H144.792C132.545 269.366 122.602 280.09 122.602 293.301V294.406C122.602 307.618 132.545 318.341 144.792 318.341H406.916C419.163 318.341 429.106 307.618 429.106 294.406V293.301Z" fill="#FFBC37"/>
<path d="M711.139 198.547C702.165 198.547 692.823 196.857 683.113 193.478C673.402 190.099 664.649 184.956 656.851 178.051L678.478 152.045C683.627 156.159 689.145 159.538 695.029 162.183C701.061 164.68 706.726 165.929 712.022 165.929C717.76 165.929 721.879 165.048 724.38 163.285C727.029 161.522 728.353 159.024 728.353 155.791C728.353 152.412 726.587 149.841 723.056 148.078C719.672 146.315 714.965 144.258 708.933 141.907L691.057 134.414C683.407 131.328 676.639 126.479 670.754 119.868C665.017 113.256 662.148 104.808 662.148 94.5229C662.148 86.295 664.428 78.8752 668.989 72.2635C673.55 65.5049 679.802 60.142 687.747 56.175C695.839 52.0611 705.107 50.0041 715.553 50.0041C723.792 50.0041 732.104 51.6203 740.49 54.8527C749.023 57.9381 756.6 62.7133 763.221 69.178L744.242 92.9802C739.387 89.6009 734.679 87.0297 730.118 85.2665C725.704 83.5034 720.849 82.6219 715.553 82.6219C710.992 82.6219 707.314 83.43 704.519 85.0461C701.871 86.6623 700.547 89.0866 700.547 92.319C700.547 95.6983 702.459 98.343 706.284 100.253C710.11 102.016 715.259 104.147 721.732 106.644L739.166 113.476C748.141 117.003 755.055 121.925 759.91 128.243C764.765 134.56 767.193 142.715 767.193 152.706C767.193 160.787 764.986 168.354 760.572 175.406C756.306 182.312 749.98 187.895 741.594 192.156C733.208 196.417 723.056 198.547 711.139 198.547Z" stroke="#333333" stroke-width="6" mask="url(#path-1-inside-1_16853_32968)"/>
<path d="M787.154 195.902V85.7073H825.112V195.902H787.154ZM806.133 72.0431C799.954 72.0431 794.952 70.3535 791.127 66.9741C787.302 63.4479 785.389 58.8197 785.389 53.0896C785.389 47.3594 787.302 42.8047 791.127 39.4254C794.952 35.8991 799.954 34.136 806.133 34.136C812.312 34.136 817.314 35.8991 821.14 39.4254C824.965 42.8047 826.877 47.3594 826.877 53.0896C826.877 58.8197 824.965 63.4479 821.14 66.9741C817.314 70.3535 812.312 72.0431 806.133 72.0431Z" stroke="#333333" stroke-width="6" mask="url(#path-1-inside-1_16853_32968)"/>
<path d="M850.73 195.902V85.7073H881.626L884.274 98.9307H885.157C889.57 94.6698 894.572 90.9967 900.163 87.9112C905.901 84.6788 912.521 83.0626 920.025 83.0626C932.236 83.0626 940.989 87.1766 946.286 95.4045C951.729 103.485 954.451 114.358 954.451 128.022V195.902H916.494V132.871C916.494 125.818 915.611 121.117 913.846 118.766C912.08 116.415 909.285 115.24 905.46 115.24C901.929 115.24 898.986 115.974 896.632 117.444C894.278 118.913 891.63 120.97 888.688 123.614V195.902H850.73Z" stroke="#333333" stroke-width="6" mask="url(#path-1-inside-1_16853_32968)"/>
<path d="M1019.34 241.303C1010.95 241.303 1003.23 240.348 996.167 238.438C989.105 236.675 983.441 233.81 979.175 229.843C975.055 225.876 972.995 220.586 972.995 213.974C972.995 205.306 978.145 198.253 988.443 192.817V191.935C985.648 189.878 983.22 187.381 981.161 184.442C979.248 181.357 978.292 177.537 978.292 172.982C978.292 169.162 979.395 165.415 981.602 161.742C983.956 158.069 986.972 154.91 990.65 152.265V151.384C986.678 148.739 983.147 144.992 980.057 140.144C977.115 135.148 975.644 129.492 975.644 123.174C975.644 114.064 977.85 106.571 982.264 100.694C986.825 94.6698 992.71 90.262 999.919 87.4704C1007.13 84.5319 1014.78 83.0626 1022.87 83.0626C1029.34 83.0626 1035.23 83.9442 1040.52 85.7073H1081.57V113.036H1065.68C1066.12 114.358 1066.49 116.048 1066.79 118.105C1067.23 120.162 1067.45 122.292 1067.45 124.496C1067.45 133.165 1065.46 140.217 1061.49 145.653C1057.52 150.943 1052.15 154.836 1045.38 157.334C1038.61 159.832 1031.11 161.081 1022.87 161.081C1019.19 161.081 1015.07 160.567 1010.51 159.538C1008.75 161.154 1007.86 163.285 1007.86 165.929C1007.86 168.28 1009.04 169.97 1011.39 170.998C1013.9 172.027 1017.87 172.541 1023.31 172.541H1039.86C1053.69 172.541 1064.36 174.818 1071.86 179.373C1079.51 183.781 1083.34 191.054 1083.34 201.192C1083.34 209.126 1080.69 216.105 1075.39 222.129C1070.24 228.153 1062.89 232.855 1053.32 236.234C1043.76 239.613 1032.43 241.303 1019.34 241.303ZM1022.87 138.601C1026.4 138.601 1029.27 137.352 1031.48 134.854C1033.68 132.357 1034.79 128.463 1034.79 123.174C1034.79 118.031 1033.68 114.285 1031.48 111.934C1029.27 109.436 1026.4 108.187 1022.87 108.187C1019.34 108.187 1016.47 109.436 1014.26 111.934C1012.06 114.285 1010.95 118.031 1010.95 123.174C1010.95 128.463 1012.06 132.357 1014.26 134.854C1016.47 137.352 1019.34 138.601 1022.87 138.601ZM1025.52 217.941C1031.7 217.941 1036.85 216.986 1040.97 215.076C1045.09 213.313 1047.15 210.889 1047.15 207.804C1047.15 204.865 1045.82 203.028 1043.17 202.294C1040.67 201.559 1037.07 201.192 1032.36 201.192H1023.75C1019.34 201.192 1015.96 201.045 1013.6 200.751C1011.39 200.604 1009.48 200.31 1007.86 199.869C1005.22 202.514 1003.89 205.159 1003.89 207.804C1003.89 211.33 1005.88 213.901 1009.85 215.517C1013.97 217.133 1019.19 217.941 1025.52 217.941Z" stroke="#333333" stroke-width="6" mask="url(#path-1-inside-1_16853_32968)"/>
<path d="M1124.02 198.547C1117.11 198.547 1111.15 197.004 1106.15 193.919C1101.29 190.687 1097.54 186.499 1094.89 181.357C1092.25 176.214 1090.92 170.631 1090.92 164.607C1090.92 153.147 1095.63 144.184 1105.05 137.719C1114.46 131.108 1129.76 126.7 1150.95 124.496C1150.06 116.856 1144.92 113.036 1135.5 113.036C1131.53 113.036 1127.33 113.844 1122.92 115.46C1118.51 116.929 1113.43 119.207 1107.69 122.292L1094.45 97.6084C1102.25 92.9067 1110.12 89.307 1118.07 86.8093C1126.16 84.3115 1134.47 83.0626 1143 83.0626C1157.42 83.0626 1168.68 87.1766 1176.77 95.4045C1184.86 103.485 1188.9 116.562 1188.9 134.634V195.902H1158.01L1155.36 185.324H1154.48C1150.06 189.291 1145.36 192.523 1140.35 195.021C1135.5 197.372 1130.06 198.547 1124.02 198.547ZM1137.26 169.456C1140.35 169.456 1142.93 168.794 1144.99 167.472C1147.05 166.003 1149.03 164.166 1150.95 161.962V146.976C1141.97 148.298 1135.72 150.282 1132.19 152.926C1128.81 155.571 1127.11 158.436 1127.11 161.522C1127.11 166.811 1130.5 169.456 1137.26 169.456Z" stroke="#333333" stroke-width="6" mask="url(#path-1-inside-1_16853_32968)"/>
<path d="M1213.65 234.691V85.7073H1244.55L1247.19 95.8453H1248.08C1252.2 92.0252 1256.83 88.9397 1261.98 86.5889C1267.28 84.238 1272.65 83.0626 1278.09 83.0626C1286.77 83.0626 1294.27 85.4135 1300.6 90.1151C1307.07 94.6698 1312.08 101.135 1315.61 109.509C1319.14 117.884 1320.9 127.728 1320.9 139.042C1320.9 151.677 1318.7 162.477 1314.28 171.439C1309.87 180.255 1304.13 187.013 1297.07 191.715C1290.15 196.27 1282.8 198.547 1275 198.547C1265.88 198.547 1257.64 194.874 1250.28 187.528L1251.61 204.277V234.691H1213.65ZM1265.73 167.692C1270.15 167.692 1273.97 165.636 1277.21 161.522C1280.44 157.408 1282.06 150.061 1282.06 139.483C1282.06 130.373 1280.74 123.835 1278.09 119.868C1275.59 115.901 1271.76 113.917 1266.61 113.917C1263.82 113.917 1261.24 114.505 1258.89 115.68C1256.54 116.856 1254.11 118.913 1251.61 121.851V162.403C1253.81 164.313 1256.1 165.709 1258.45 166.591C1260.95 167.325 1263.38 167.692 1265.73 167.692Z" stroke="#333333" stroke-width="6" mask="url(#path-1-inside-1_16853_32968)"/>
<path d="M1390.66 198.547C1381.24 198.547 1372.34 196.27 1363.95 191.715C1355.71 187.16 1348.95 180.622 1343.65 172.1C1338.5 163.432 1335.93 153 1335.93 140.805C1335.93 128.61 1338.5 118.252 1343.65 109.73C1348.95 101.061 1355.71 94.4495 1363.95 89.8947C1372.34 85.34 1381.24 83.0626 1390.66 83.0626C1400.07 83.0626 1408.9 85.34 1417.14 89.8947C1425.52 94.4495 1432.29 101.061 1437.44 109.73C1442.74 118.252 1445.39 128.61 1445.39 140.805C1445.39 153 1442.74 163.432 1437.44 172.1C1432.29 180.622 1425.52 187.16 1417.14 191.715C1408.9 196.27 1400.07 198.547 1390.66 198.547ZM1390.66 168.133C1396.39 168.133 1400.44 165.709 1402.79 160.86C1405.29 155.865 1406.54 149.18 1406.54 140.805C1406.54 132.43 1405.29 125.818 1402.79 120.97C1400.44 115.974 1396.39 113.476 1390.66 113.476C1384.92 113.476 1380.8 115.974 1378.3 120.97C1375.94 125.818 1374.77 132.43 1374.77 140.805C1374.77 149.18 1375.94 155.865 1378.3 160.86C1380.8 165.709 1384.92 168.133 1390.66 168.133Z" stroke="#333333" stroke-width="6" mask="url(#path-1-inside-1_16853_32968)"/>
<path d="M1465.15 195.902V85.7073H1496.05L1498.7 104.661H1499.58C1503.7 97.1676 1508.55 91.7313 1514.14 88.352C1519.88 84.8257 1525.47 83.0626 1530.92 83.0626C1534.3 83.0626 1537.02 83.283 1539.08 83.7238C1541.29 84.0177 1543.13 84.5319 1544.6 85.2665L1538.42 117.884C1536.51 117.444 1534.59 117.076 1532.68 116.782C1530.77 116.342 1528.56 116.121 1526.06 116.121C1522.09 116.121 1517.89 117.517 1513.48 120.309C1509.21 122.953 1505.76 127.728 1503.11 134.634V195.902H1465.15Z" stroke="#333333" stroke-width="6" mask="url(#path-1-inside-1_16853_32968)"/>
<path d="M1606.43 198.547C1595.69 198.547 1585.98 196.27 1577.3 191.715C1568.77 187.16 1562 180.622 1557 172.1C1552 163.432 1549.5 153 1549.5 140.805C1549.5 128.904 1552 118.692 1557 110.171C1562.15 101.502 1568.77 94.8168 1576.86 90.1151C1584.95 85.4135 1593.49 83.0626 1602.46 83.0626C1613.35 83.0626 1622.32 85.4869 1629.38 90.3355C1636.59 95.0372 1641.89 101.428 1645.27 109.509C1648.8 117.59 1650.57 126.553 1650.57 136.397C1650.57 139.629 1650.35 142.788 1649.91 145.874C1649.61 148.812 1649.32 150.943 1649.03 152.265H1586.13C1587.9 158.877 1591.06 163.505 1595.62 166.15C1600.18 168.648 1605.55 169.896 1611.73 169.896C1618.79 169.896 1626.3 167.692 1634.24 163.285L1646.6 185.764C1640.71 189.878 1634.09 193.037 1626.74 195.241C1619.38 197.445 1612.61 198.547 1606.43 198.547ZM1585.69 127.581H1618.35C1618.35 123.321 1617.25 119.647 1615.04 116.562C1612.98 113.33 1609.08 111.713 1603.34 111.713C1599.22 111.713 1595.55 112.962 1592.31 115.46C1589.07 117.958 1586.87 121.998 1585.69 127.581Z" stroke="#333333" stroke-width="6" mask="url(#path-1-inside-1_16853_32968)"/>
<path d="M1784.87 198.547C1771.48 198.547 1759.27 195.902 1748.24 190.613C1737.35 185.177 1728.67 177.022 1722.2 166.15C1715.72 155.277 1712.49 141.686 1712.49 125.378C1712.49 113.33 1714.4 102.677 1718.22 93.421C1722.05 84.0176 1727.27 76.0836 1733.89 69.6188C1740.51 63.154 1748.09 58.3055 1756.62 55.0731C1765.3 51.6937 1774.42 50.0041 1783.99 50.0041C1794.58 50.0041 1803.78 51.9141 1811.57 55.7342C1819.37 59.4074 1825.77 63.8152 1830.77 68.9576L1810.91 93.2006C1807.38 90.1151 1803.63 87.6174 1799.66 85.7073C1795.83 83.6503 1791.05 82.6219 1785.31 82.6219C1775.6 82.6219 1767.51 86.295 1761.04 93.6414C1754.56 100.841 1751.33 110.979 1751.33 124.055C1751.33 137.426 1754.34 147.784 1760.37 155.13C1766.55 162.33 1776.04 165.929 1788.84 165.929C1790.9 165.929 1792.89 165.709 1794.8 165.268C1796.86 164.827 1798.55 164.166 1799.88 163.285V143.45H1778.69V112.595H1833.42V180.916C1828.42 185.764 1821.58 189.952 1812.9 193.478C1804.36 196.857 1795.02 198.547 1784.87 198.547Z" stroke="#333333" stroke-width="6" mask="url(#path-1-inside-1_16853_32968)"/>
<path d="M1907.24 198.547C1897.82 198.547 1888.92 196.27 1880.53 191.715C1872.29 187.16 1865.53 180.622 1860.23 172.1C1855.08 163.432 1852.51 153 1852.51 140.805C1852.51 128.61 1855.08 118.252 1860.23 109.73C1865.53 101.061 1872.29 94.4495 1880.53 89.8947C1888.92 85.34 1897.82 83.0626 1907.24 83.0626C1916.65 83.0626 1925.48 85.34 1933.72 89.8947C1942.1 94.4495 1948.87 101.061 1954.02 109.73C1959.32 118.252 1961.96 128.61 1961.96 140.805C1961.96 153 1959.32 163.432 1954.02 172.1C1948.87 180.622 1942.1 187.16 1933.72 191.715C1925.48 196.27 1916.65 198.547 1907.24 198.547ZM1907.24 168.133C1912.97 168.133 1917.02 165.709 1919.37 160.86C1921.87 155.865 1923.12 149.18 1923.12 140.805C1923.12 132.43 1921.87 125.818 1919.37 120.97C1917.02 115.974 1912.97 113.476 1907.24 113.476C1901.5 113.476 1897.38 115.974 1894.88 120.97C1892.52 125.818 1891.35 132.43 1891.35 140.805C1891.35 149.18 1892.52 155.865 1894.88 160.86C1897.38 165.709 1901.5 168.133 1907.24 168.133Z" stroke="#333333" stroke-width="6" mask="url(#path-1-inside-1_16853_32968)"/>
<path d="M2005.62 195.902L1969.42 85.7073H2007.38L2019.3 133.752C2021.95 144.772 2024.6 156.232 2027.24 168.133H2028.13C2030.77 156.232 2033.42 144.772 2036.07 133.752L2047.99 85.7073H2084.18L2049.31 195.902H2005.62Z" stroke="#333333" stroke-width="6" mask="url(#path-1-inside-1_16853_32968)"/>
<path d="M2148.66 198.547C2137.92 198.547 2128.21 196.27 2119.53 191.715C2111 187.16 2104.23 180.622 2099.23 172.1C2094.22 163.432 2091.72 153 2091.72 140.805C2091.72 128.904 2094.22 118.692 2099.23 110.171C2104.38 101.502 2111 94.8168 2119.09 90.1151C2127.18 85.4135 2135.71 83.0626 2144.69 83.0626C2155.57 83.0626 2164.55 85.4869 2171.61 90.3355C2178.82 95.0372 2184.12 101.428 2187.5 109.509C2191.03 117.59 2192.8 126.553 2192.8 136.397C2192.8 139.629 2192.58 142.788 2192.13 145.874C2191.84 148.812 2191.55 150.943 2191.25 152.265H2128.36C2130.12 158.877 2133.29 163.505 2137.85 166.15C2142.41 168.648 2147.78 169.896 2153.96 169.896C2161.02 169.896 2168.52 167.692 2176.47 163.285L2188.82 185.764C2182.94 189.878 2176.32 193.037 2168.96 195.241C2161.61 197.445 2154.84 198.547 2148.66 198.547ZM2127.92 127.581H2160.58C2160.58 123.321 2159.47 119.647 2157.27 116.562C2155.21 113.33 2151.31 111.713 2145.57 111.713C2141.45 111.713 2137.77 112.962 2134.54 115.46C2131.3 117.958 2129.09 121.998 2127.92 127.581Z" stroke="#333333" stroke-width="6" mask="url(#path-1-inside-1_16853_32968)"/>
<path d="M2213.62 195.902V85.7073H2244.52L2247.17 104.661H2248.05C2252.17 97.1676 2257.02 91.7313 2262.61 88.352C2268.35 84.8257 2273.94 83.0626 2279.38 83.0626C2282.77 83.0626 2285.49 83.283 2287.55 83.7238C2289.76 84.0177 2291.6 84.5319 2293.07 85.2665L2286.89 117.884C2284.98 117.444 2283.06 117.076 2281.15 116.782C2279.24 116.342 2277.03 116.121 2274.53 116.121C2270.56 116.121 2266.36 117.517 2261.95 120.309C2257.68 122.953 2254.23 127.728 2251.58 134.634V195.902H2213.62Z" stroke="#333333" stroke-width="6" mask="url(#path-1-inside-1_16853_32968)"/>
<path d="M2305.86 195.902V85.7073H2336.76L2339.4 98.9307H2340.29C2344.7 94.6698 2349.7 90.9967 2355.29 87.9112C2361.03 84.6788 2367.65 83.0626 2375.15 83.0626C2387.37 83.0626 2396.12 87.1766 2401.42 95.4045C2406.86 103.485 2409.58 114.358 2409.58 128.022V195.902H2371.62V132.871C2371.62 125.818 2370.74 121.117 2368.98 118.766C2367.21 116.415 2364.41 115.24 2360.59 115.24C2357.06 115.24 2354.12 115.974 2351.76 117.444C2349.41 118.913 2346.76 120.97 2343.82 123.614V195.902H2305.86Z" stroke="#333333" stroke-width="6" mask="url(#path-1-inside-1_16853_32968)"/>
<path d="M2434.3 195.902V85.7073H2465.2L2467.85 99.1511H2468.73C2473.14 94.8902 2477.85 91.1436 2482.85 87.9112C2488 84.6788 2494.33 83.0626 2501.83 83.0626C2509.34 83.0626 2515.52 84.6054 2520.37 87.6908C2525.37 90.6294 2529.35 94.9637 2532.29 100.694C2536.85 95.9922 2541.78 91.8782 2547.07 88.352C2552.37 84.8257 2558.77 83.0626 2566.27 83.0626C2578.48 83.0626 2587.31 87.1766 2592.75 95.4045C2598.35 103.485 2601.14 114.358 2601.14 128.022V195.902H2563.18V132.871C2563.18 125.818 2562.3 121.117 2560.54 118.766C2558.77 116.415 2555.97 115.24 2552.15 115.24C2547.44 115.24 2542.29 118.031 2536.7 123.614V195.902H2498.74V132.871C2498.74 125.818 2497.86 121.117 2496.1 118.766C2494.33 116.415 2491.53 115.24 2487.71 115.24C2483 115.24 2477.85 118.031 2472.26 123.614V195.902H2434.3Z" stroke="#333333" stroke-width="6" mask="url(#path-1-inside-1_16853_32968)"/>
<path d="M2677.09 198.547C2666.35 198.547 2656.64 196.27 2647.96 191.715C2639.43 187.16 2632.66 180.622 2627.66 172.1C2622.66 163.432 2620.16 153 2620.16 140.805C2620.16 128.904 2622.66 118.692 2627.66 110.171C2632.81 101.502 2639.43 94.8168 2647.52 90.1151C2655.61 85.4135 2664.15 83.0626 2673.12 83.0626C2684.01 83.0626 2692.98 85.4869 2700.04 90.3355C2707.25 95.0372 2712.55 101.428 2715.93 109.509C2719.46 117.59 2721.23 126.553 2721.23 136.397C2721.23 139.629 2721.01 142.788 2720.57 145.874C2720.27 148.812 2719.98 150.943 2719.68 152.265H2656.79C2658.55 158.877 2661.72 163.505 2666.28 166.15C2670.84 168.648 2676.21 169.896 2682.39 169.896C2689.45 169.896 2696.95 167.692 2704.9 163.285L2717.26 185.764C2711.37 189.878 2704.75 193.037 2697.4 195.241C2690.04 197.445 2683.27 198.547 2677.09 198.547ZM2656.35 127.581H2689.01C2689.01 123.321 2687.91 119.647 2685.7 116.562C2683.64 113.33 2679.74 111.713 2674 111.713C2669.88 111.713 2666.2 112.962 2662.97 115.46C2659.73 117.958 2657.52 121.998 2656.35 127.581Z" stroke="#333333" stroke-width="6" mask="url(#path-1-inside-1_16853_32968)"/>
<path d="M2742.05 195.902V85.7073H2772.95L2775.6 98.9307H2776.48C2780.89 94.6698 2785.9 90.9967 2791.49 87.9112C2797.22 84.6788 2803.85 83.0626 2811.35 83.0626C2823.56 83.0626 2832.31 87.1766 2837.61 95.4045C2843.05 103.485 2845.78 114.358 2845.78 128.022V195.902H2807.82V132.871C2807.82 125.818 2806.93 121.117 2805.17 118.766C2803.4 116.415 2800.61 115.24 2796.78 115.24C2793.25 115.24 2790.31 115.974 2787.96 117.444C2785.6 118.913 2782.95 120.97 2780.01 123.614V195.902H2742.05Z" stroke="#333333" stroke-width="6" mask="url(#path-1-inside-1_16853_32968)"/>
<path d="M2915.96 198.547C2901.69 198.547 2891.32 194.433 2884.84 186.205C2878.52 177.83 2875.35 166.958 2875.35 153.588V115.24H2860.79V87.0297L2877.56 85.7073L2881.97 57.0566H2913.31V85.7073H2938.47V115.24H2913.31V152.926C2913.31 158.95 2914.64 163.138 2917.28 165.489C2919.93 167.839 2923.02 169.015 2926.55 169.015C2928.32 169.015 2930.01 168.868 2931.63 168.574C2933.39 168.133 2934.94 167.692 2936.26 167.252L2942 194.58C2939.2 195.462 2935.67 196.343 2931.41 197.225C2927.14 198.106 2921.99 198.547 2915.96 198.547Z" stroke="#333333" stroke-width="6" mask="url(#path-1-inside-1_16853_32968)"/>
<path d="M665.679 440.78V297.527H708.05C722.615 297.527 735.415 299.951 746.449 304.8C757.63 309.501 766.31 317.068 772.489 327.5C778.668 337.932 781.758 351.596 781.758 368.492C781.758 385.389 778.668 399.2 772.489 409.926C766.31 420.505 757.851 428.292 747.111 433.287C736.371 438.283 724.086 440.78 710.257 440.78H665.679ZM703.636 410.367H705.843C712.758 410.367 719.01 409.191 724.601 406.84C730.192 404.49 734.605 400.302 737.842 394.278C741.226 388.254 742.918 379.659 742.918 368.492C742.918 357.326 741.226 348.878 737.842 343.148C734.605 337.271 730.192 333.303 724.601 331.247C719.01 329.043 712.758 327.941 705.843 327.941H703.636V410.367Z" stroke="#333333" stroke-width="6" mask="url(#path-1-inside-1_16853_32968)"/>
<path d="M855.378 443.425C844.638 443.425 834.928 441.148 826.248 436.593C817.715 432.038 810.947 425.5 805.945 416.978C800.943 408.31 798.442 397.878 798.442 385.683C798.442 373.782 800.943 363.57 805.945 355.049C811.095 346.38 817.715 339.695 825.807 334.993C833.898 330.292 842.431 327.941 851.406 327.941C862.293 327.941 871.267 330.365 878.329 335.214C885.538 339.915 890.835 346.307 894.218 354.388C897.749 362.468 899.515 371.431 899.515 381.275C899.515 384.508 899.294 387.666 898.853 390.752C898.559 393.69 898.264 395.821 897.97 397.143H835.075C836.841 403.755 840.004 408.383 844.565 411.028C849.125 413.526 854.495 414.774 860.675 414.774C867.736 414.774 875.24 412.571 883.184 408.163L895.543 430.643C889.658 434.756 883.037 437.915 875.681 440.119C868.325 442.323 861.557 443.425 855.378 443.425ZM834.634 372.46H867.295C867.295 368.199 866.192 364.525 863.985 361.44C861.925 358.208 858.026 356.591 852.289 356.591C848.169 356.591 844.491 357.84 841.255 360.338C838.018 362.836 835.811 366.876 834.634 372.46Z" stroke="#333333" stroke-width="6" mask="url(#path-1-inside-1_16853_32968)"/>
<path d="M944.226 440.78L908.034 330.585H945.991L957.908 378.63C960.556 389.65 963.204 401.11 965.853 413.011H966.735C969.383 401.11 972.032 389.65 974.68 378.63L986.597 330.585H1022.79L987.921 440.78H944.226Z" stroke="#333333" stroke-width="6" mask="url(#path-1-inside-1_16853_32968)"/>
<path d="M1087.27 443.425C1076.53 443.425 1066.82 441.148 1058.14 436.593C1049.6 432.038 1042.84 425.5 1037.83 416.978C1032.83 408.31 1030.33 397.878 1030.33 385.683C1030.33 373.782 1032.83 363.57 1037.83 355.049C1042.98 346.38 1049.6 339.695 1057.7 334.993C1065.79 330.292 1074.32 327.941 1083.3 327.941C1094.18 327.941 1103.16 330.365 1110.22 335.214C1117.43 339.915 1122.72 346.307 1126.11 354.388C1129.64 362.468 1131.4 371.431 1131.4 381.275C1131.4 384.508 1131.18 387.666 1130.74 390.752C1130.45 393.69 1130.15 395.821 1129.86 397.143H1066.97C1068.73 403.755 1071.89 408.383 1076.45 411.028C1081.02 413.526 1086.39 414.774 1092.56 414.774C1099.63 414.774 1107.13 412.571 1115.07 408.163L1127.43 430.643C1121.55 434.756 1114.93 437.915 1107.57 440.119C1100.21 442.323 1093.45 443.425 1087.27 443.425ZM1066.52 372.46H1099.18C1099.18 368.199 1098.08 364.525 1095.87 361.44C1093.81 358.208 1089.92 356.591 1084.18 356.591C1080.06 356.591 1076.38 357.84 1073.14 360.338C1069.91 362.836 1067.7 366.876 1066.52 372.46Z" stroke="#333333" stroke-width="6" mask="url(#path-1-inside-1_16853_32968)"/>
<path d="M1186.22 443.425C1177.68 443.425 1170.91 441.735 1165.91 438.356C1161.06 434.83 1157.53 429.981 1155.32 423.81C1153.26 417.493 1152.23 410.22 1152.23 401.992V287.389H1190.19V403.314C1190.19 406.987 1190.85 409.559 1192.17 411.028C1193.64 412.35 1195.04 413.011 1196.37 413.011C1197.1 413.011 1197.69 413.011 1198.13 413.011C1198.72 412.864 1199.46 412.717 1200.34 412.571L1204.75 440.34C1202.84 441.221 1200.34 441.956 1197.25 442.544C1194.16 443.131 1190.48 443.425 1186.22 443.425Z" stroke="#333333" stroke-width="6" mask="url(#path-1-inside-1_16853_32968)"/>
<path d="M1266.95 443.425C1257.54 443.425 1248.64 441.148 1240.25 436.593C1232.01 432.038 1225.24 425.5 1219.95 416.978C1214.8 408.31 1212.22 397.878 1212.22 385.683C1212.22 373.488 1214.8 363.13 1219.95 354.608C1225.24 345.939 1232.01 339.328 1240.25 334.773C1248.64 330.218 1257.54 327.941 1266.95 327.941C1276.37 327.941 1285.2 330.218 1293.43 334.773C1301.82 339.328 1308.59 345.939 1313.74 354.608C1319.03 363.13 1321.68 373.488 1321.68 385.683C1321.68 397.878 1319.03 408.31 1313.74 416.978C1308.59 425.5 1301.82 432.038 1293.43 436.593C1285.2 441.148 1276.37 443.425 1266.95 443.425ZM1266.95 413.011C1272.69 413.011 1276.74 410.587 1279.09 405.738C1281.59 400.743 1282.84 394.058 1282.84 385.683C1282.84 377.308 1281.59 370.696 1279.09 365.848C1276.74 360.852 1272.69 358.355 1266.95 358.355C1261.21 358.355 1257.1 360.852 1254.59 365.848C1252.24 370.696 1251.06 377.308 1251.06 385.683C1251.06 394.058 1252.24 400.743 1254.59 405.738C1257.1 410.587 1261.21 413.011 1266.95 413.011Z" stroke="#333333" stroke-width="6" mask="url(#path-1-inside-1_16853_32968)"/>
<path d="M1341.45 479.569V330.585H1372.34L1374.99 340.723H1375.88C1379.99 336.903 1384.63 333.818 1389.78 331.467C1395.07 329.116 1400.44 327.941 1405.89 327.941C1414.57 327.941 1422.07 330.292 1428.4 334.993C1434.87 339.548 1439.87 346.013 1443.4 354.388C1446.94 362.762 1448.7 372.606 1448.7 383.92C1448.7 396.556 1446.49 407.355 1442.08 416.317C1437.67 425.133 1431.93 431.891 1424.87 436.593C1417.95 441.148 1410.6 443.425 1402.8 443.425C1393.68 443.425 1385.44 439.752 1378.08 432.406L1379.41 449.155V479.569H1341.45ZM1393.53 412.571C1397.94 412.571 1401.77 410.514 1405.01 406.4C1408.24 402.286 1409.86 394.939 1409.86 384.361C1409.86 375.251 1408.54 368.713 1405.89 364.746C1403.39 360.779 1399.56 358.795 1394.41 358.795C1391.62 358.795 1389.04 359.383 1386.69 360.558C1384.33 361.734 1381.91 363.791 1379.41 366.729V407.281C1381.61 409.191 1383.89 410.587 1386.25 411.469C1388.75 412.203 1391.18 412.571 1393.53 412.571Z" stroke="#333333" stroke-width="6" mask="url(#path-1-inside-1_16853_32968)"/>
<path d="M1520.66 443.425C1509.92 443.425 1500.21 441.148 1491.53 436.593C1483 432.038 1476.23 425.5 1471.23 416.978C1466.23 408.31 1463.72 397.878 1463.72 385.683C1463.72 373.782 1466.23 363.57 1471.23 355.049C1476.38 346.38 1483 339.695 1491.09 334.993C1499.18 330.292 1507.71 327.941 1516.69 327.941C1527.58 327.941 1536.55 330.365 1543.61 335.214C1550.82 339.915 1556.12 346.307 1559.5 354.388C1563.03 362.468 1564.8 371.431 1564.8 381.275C1564.8 384.508 1564.58 387.666 1564.14 390.752C1563.84 393.69 1563.55 395.821 1563.25 397.143H1500.36C1502.12 403.755 1505.29 408.383 1509.85 411.028C1514.41 413.526 1519.78 414.774 1525.96 414.774C1533.02 414.774 1540.52 412.571 1548.47 408.163L1560.82 430.643C1554.94 434.756 1548.32 437.915 1540.96 440.119C1533.61 442.323 1526.84 443.425 1520.66 443.425ZM1499.92 372.46H1532.58C1532.58 368.199 1531.47 364.525 1529.27 361.44C1527.21 358.208 1523.31 356.591 1517.57 356.591C1513.45 356.591 1509.77 357.84 1506.54 360.338C1503.3 362.836 1501.09 366.876 1499.92 372.46Z" stroke="#333333" stroke-width="6" mask="url(#path-1-inside-1_16853_32968)"/>
<path d="M1585.62 440.78V330.585H1616.52L1619.17 349.539H1620.05C1624.17 342.046 1629.02 336.609 1634.61 333.23C1640.35 329.704 1645.94 327.941 1651.39 327.941C1654.77 327.941 1657.49 328.161 1659.55 328.602C1661.76 328.896 1663.6 329.41 1665.07 330.145L1658.89 362.762C1656.98 362.322 1655.06 361.954 1653.15 361.66C1651.24 361.22 1649.03 360.999 1646.53 360.999C1642.56 360.999 1638.37 362.395 1633.95 365.187C1629.69 367.831 1626.23 372.606 1623.58 379.512V440.78H1585.62Z" stroke="#333333" stroke-width="6" mask="url(#path-1-inside-1_16853_32968)"/>
<path d="M1725.13 440.78V297.527H1777.65C1788.1 297.527 1797.74 298.996 1806.56 301.935C1815.39 304.873 1822.45 309.795 1827.75 316.701C1833.19 323.606 1835.91 333.083 1835.91 345.131C1835.91 356.738 1833.19 366.289 1827.75 373.782C1822.45 381.128 1815.39 386.564 1806.56 390.091C1797.88 393.617 1788.54 395.38 1778.54 395.38H1763.09V440.78H1725.13ZM1763.09 365.407H1776.77C1784.27 365.407 1789.79 363.644 1793.32 360.118C1797 356.444 1798.84 351.449 1798.84 345.131C1798.84 338.666 1796.85 334.112 1792.88 331.467C1788.91 328.822 1783.24 327.5 1775.89 327.5H1763.09V365.407Z" stroke="#333333" stroke-width="6" mask="url(#path-1-inside-1_16853_32968)"/>
<path d="M1900.99 443.425C1891.57 443.425 1882.67 441.148 1874.28 436.593C1866.04 432.038 1859.28 425.5 1853.98 416.978C1848.83 408.31 1846.26 397.878 1846.26 385.683C1846.26 373.488 1848.83 363.13 1853.98 354.608C1859.28 345.939 1866.04 339.328 1874.28 334.773C1882.67 330.218 1891.57 327.941 1900.99 327.941C1910.4 327.941 1919.23 330.218 1927.47 334.773C1935.85 339.328 1942.62 345.939 1947.77 354.608C1953.07 363.13 1955.71 373.488 1955.71 385.683C1955.71 397.878 1953.07 408.31 1947.77 416.978C1942.62 425.5 1935.85 432.038 1927.47 436.593C1919.23 441.148 1910.4 443.425 1900.99 443.425ZM1900.99 413.011C1906.72 413.011 1910.77 410.587 1913.12 405.738C1915.62 400.743 1916.87 394.058 1916.87 385.683C1916.87 377.308 1915.62 370.696 1913.12 365.848C1910.77 360.852 1906.72 358.355 1900.99 358.355C1895.25 358.355 1891.13 360.852 1888.63 365.848C1886.27 370.696 1885.1 377.308 1885.1 385.683C1885.1 394.058 1886.27 400.743 1888.63 405.738C1891.13 410.587 1895.25 413.011 1900.99 413.011Z" stroke="#333333" stroke-width="6" mask="url(#path-1-inside-1_16853_32968)"/>
<path d="M1975.48 440.78V330.585H2006.38L2009.03 349.539H2009.91C2014.03 342.046 2018.88 336.609 2024.47 333.23C2030.21 329.704 2035.8 327.941 2041.25 327.941C2044.63 327.941 2047.35 328.161 2049.41 328.602C2051.62 328.896 2053.46 329.41 2054.93 330.145L2048.75 362.762C2046.84 362.322 2044.92 361.954 2043.01 361.66C2041.1 361.22 2038.89 360.999 2036.39 360.999C2032.42 360.999 2028.23 362.395 2023.81 365.187C2019.54 367.831 2016.09 372.606 2013.44 379.512V440.78H1975.48Z" stroke="#333333" stroke-width="6" mask="url(#path-1-inside-1_16853_32968)"/>
<path d="M2113.18 443.425C2098.91 443.425 2088.54 439.311 2082.06 431.083C2075.74 422.708 2072.58 411.836 2072.58 398.466V360.118H2058.01V331.908L2074.78 330.585L2079.2 301.935H2110.53V330.585H2135.69V360.118H2110.53V397.804C2110.53 403.828 2111.86 408.016 2114.51 410.367C2117.15 412.717 2120.24 413.893 2123.77 413.893C2125.54 413.893 2127.23 413.746 2128.85 413.452C2130.62 413.011 2132.16 412.571 2133.48 412.13L2139.22 439.458C2136.43 440.34 2132.9 441.221 2128.63 442.103C2124.36 442.984 2119.21 443.425 2113.18 443.425Z" stroke="#333333" stroke-width="6" mask="url(#path-1-inside-1_16853_32968)"/>
<path d="M2180.46 443.425C2173.54 443.425 2167.59 441.882 2162.58 438.797C2157.73 435.565 2153.98 431.377 2151.33 426.235C2148.68 421.092 2147.36 415.509 2147.36 409.485C2147.36 398.025 2152.06 389.062 2161.48 382.597C2170.9 375.986 2186.2 371.578 2207.38 369.374C2206.5 361.734 2201.35 357.914 2191.93 357.914C2187.96 357.914 2183.77 358.722 2179.35 360.338C2174.94 361.807 2169.87 364.085 2164.13 367.17L2150.89 342.486C2158.68 337.785 2166.56 334.185 2174.5 331.687C2182.59 329.19 2190.9 327.941 2199.44 327.941C2213.86 327.941 2225.11 332.055 2233.2 340.283C2241.29 348.364 2245.34 361.44 2245.34 379.512V440.78H2214.44L2211.8 430.202H2210.91C2206.5 434.169 2201.79 437.401 2196.79 439.899C2191.93 442.25 2186.49 443.425 2180.46 443.425ZM2193.7 414.334C2196.79 414.334 2199.36 413.673 2201.42 412.35C2203.48 410.881 2205.47 409.044 2207.38 406.84V391.854C2198.41 393.176 2192.15 395.16 2188.62 397.804C2185.24 400.449 2183.55 403.314 2183.55 406.4C2183.55 411.689 2186.93 414.334 2193.7 414.334Z" stroke="#333333" stroke-width="6" mask="url(#path-1-inside-1_16853_32968)"/>
<path d="M2304.07 443.425C2295.54 443.425 2288.77 441.735 2283.77 438.356C2278.91 434.83 2275.38 429.981 2273.17 423.81C2271.12 417.493 2270.09 410.22 2270.09 401.992V287.389H2308.04V403.314C2308.04 406.987 2308.7 409.559 2310.03 411.028C2311.5 412.35 2312.9 413.011 2314.22 413.011C2314.96 413.011 2315.55 413.011 2315.99 413.011C2316.58 412.864 2317.31 412.717 2318.19 412.571L2322.61 440.34C2320.7 441.221 2318.19 441.956 2315.1 442.544C2312.01 443.131 2308.34 443.425 2304.07 443.425Z" stroke="#333333" stroke-width="6" mask="url(#path-1-inside-1_16853_32968)"/>
<path fill-rule="evenodd" clip-rule="evenodd" d="M142.605 502H110.834C68.8521 502 47.8641 473.058 47.8641 415.176V319.584C47.8641 290.926 37.5019 274.912 16.7775 268.312C7.51216 268.312 0 260.563 0 251.001C0 241.443 7.50935 233.691 16.7747 233.691C37.5019 227.278 47.8641 210.605 47.8641 181.568V86.2607C47.8641 28.7526 68.8521 0 110.834 0H142.605C151.87 0 159.382 7.74893 159.382 17.3101C159.382 26.8714 151.87 34.6203 142.605 34.6203H134.217C100.662 34.6203 83.8848 34.6203 83.8848 77.8971L85.0602 183.55C85.0602 216.921 73.7246 239.263 51.0507 250.576C73.7246 262.079 85.0602 284.516 85.0602 317.887L83.8848 424.103C83.8848 469.203 98.9989 468.609 122.815 467.673H122.831C123.816 467.632 142.605 467.38 142.605 467.38C151.87 467.38 159.382 475.129 159.382 484.69C159.382 494.251 151.87 502 142.605 502Z" stroke="#333333" stroke-width="6" mask="url(#path-1-inside-1_16853_32968)"/>
<path fill-rule="evenodd" clip-rule="evenodd" d="M409.103 502H440.874C482.856 502 503.847 473.058 503.847 415.176V319.584C503.847 290.926 514.206 274.912 534.93 268.312C544.196 268.312 551.708 260.563 551.708 251.001C551.708 241.443 544.196 233.691 534.933 233.691C514.206 227.278 503.847 210.605 503.847 181.568V86.2607C503.847 28.7526 482.856 0 440.874 0H409.103C399.838 0 392.326 7.74893 392.326 17.3101C392.326 26.8714 399.838 34.6203 409.103 34.6203H417.493C451.046 34.6203 467.823 34.6203 467.823 77.8971L466.648 183.55C466.648 216.921 477.983 239.263 500.657 250.576C477.983 262.079 466.648 284.516 466.648 317.887L467.823 424.103C467.823 469.203 452.709 468.609 428.893 467.673H428.877C427.892 467.632 409.103 467.38 409.103 467.38C399.838 467.38 392.326 475.129 392.326 484.69C392.326 494.251 399.838 502 409.103 502Z" stroke="#333333" stroke-width="6" mask="url(#path-1-inside-1_16853_32968)"/>
<path fill-rule="evenodd" clip-rule="evenodd" d="M294.244 121.886C294.244 108.678 284.222 97.9512 271.874 97.9512H144.969C132.625 97.9512 122.602 108.678 122.602 121.886V122.992C122.602 136.203 132.625 146.927 144.969 146.927H271.874C284.222 146.927 294.244 136.203 294.244 122.992V121.886Z" stroke="#333333" stroke-width="6" mask="url(#path-1-inside-1_16853_32968)"/>
<path fill-rule="evenodd" clip-rule="evenodd" d="M429.106 121.886C429.106 108.678 419.344 97.9512 407.32 97.9512H328.291C316.267 97.9512 306.504 108.678 306.504 121.886V122.992C306.504 136.203 316.267 146.927 328.291 146.927H407.32C419.344 146.927 429.106 136.203 429.106 122.992V121.886Z" stroke="#333333" stroke-width="6" mask="url(#path-1-inside-1_16853_32968)"/>
<path fill-rule="evenodd" clip-rule="evenodd" d="M232.943 207.592C232.943 194.383 223.278 183.659 211.375 183.659H144.171C132.267 183.659 122.602 194.383 122.602 207.592V208.701C122.602 221.91 132.267 232.634 144.171 232.634H211.375C223.278 232.634 232.943 221.91 232.943 208.701V207.592Z" stroke="#333333" stroke-width="6" mask="url(#path-1-inside-1_16853_32968)"/>
<path fill-rule="evenodd" clip-rule="evenodd" d="M232.943 379.007C232.943 365.798 223.278 355.073 211.375 355.073H144.171C132.267 355.073 122.602 365.798 122.602 379.007V380.115C122.602 393.324 132.267 404.049 144.171 404.049H211.375C223.278 404.049 232.943 393.324 232.943 380.115V379.007Z" stroke="#333333" stroke-width="6" mask="url(#path-1-inside-1_16853_32968)"/>
<path fill-rule="evenodd" clip-rule="evenodd" d="M429.106 379.561C429.106 366.046 418.806 355.073 406.117 355.073H268.19C255.504 355.073 245.204 366.046 245.204 379.561C245.204 393.076 255.504 404.049 268.19 404.049H406.117C418.806 404.049 429.106 393.076 429.106 379.561Z" stroke="#333333" stroke-width="6" mask="url(#path-1-inside-1_16853_32968)"/>
<path fill-rule="evenodd" clip-rule="evenodd" d="M429.106 207.592C429.106 194.383 419.039 183.659 406.639 183.659H267.671C255.271 183.659 245.204 194.383 245.204 207.592V208.701C245.204 221.91 255.271 232.634 267.671 232.634H406.639C419.039 232.634 429.106 221.91 429.106 208.701V207.592Z" stroke="#333333" stroke-width="6" mask="url(#path-1-inside-1_16853_32968)"/>
<path fill-rule="evenodd" clip-rule="evenodd" d="M429.106 293.301C429.106 280.09 419.163 269.366 406.916 269.366H144.792C132.545 269.366 122.602 280.09 122.602 293.301V294.406C122.602 307.618 132.545 318.341 144.792 318.341H406.916C419.163 318.341 429.106 307.618 429.106 294.406V293.301Z" stroke="#333333" stroke-width="6" mask="url(#path-1-inside-1_16853_32968)"/>
</svg>
